<svg width="140" height="141" viewBox="0 0 140 141" fill="none" xmlns="http://www.w3.org/2000/svg">
<path d="M70.0046 84.3047C67.4384 84.3047 65.3583 82.2246 65.3583 79.6584C65.3583 77.0921 67.4384 75.012 70.0046 75.012C72.5709 75.012 74.651 77.0921 74.651 79.6584L79.2973 79.6584C79.2814 75.434 76.4183 71.7517 72.3278 70.6956V68.0425H67.6814V70.6956C62.7212 71.9721 59.735 77.0282 61.0116 81.9885C62.0675 86.0907 65.7686 88.9563 70.0046 88.9511C72.5709 88.9511 74.651 91.0312 74.651 93.5974C74.651 96.1637 72.5709 98.2438 70.0046 98.2438C67.4384 98.2438 65.3583 96.1637 65.3583 93.5974H60.7119C60.7279 97.8219 63.5912 101.504 67.6814 102.56V105.213H72.3278V102.56C77.2881 101.284 80.2742 96.2276 78.9976 91.2673C77.9418 87.1649 74.2406 84.2995 70.0046 84.3047Z" fill="#222222"/>
<path d="M70.0041 56.4268C53.3242 56.4268 39.8027 69.9482 39.8027 86.6281C39.8027 103.308 53.3242 116.829 70.0041 116.829C86.6839 116.829 100.205 103.308 100.205 86.6281C100.186 69.9564 86.6758 56.4459 70.0041 56.4268ZM70.0041 112.183C55.8905 112.183 44.4491 100.742 44.4491 86.6281C44.4491 72.5145 55.8905 61.0731 70.0041 61.0731C84.1177 61.0731 95.559 72.5145 95.559 86.6281C95.5425 100.735 84.1107 112.166 70.0041 112.183Z" fill="#222222"/>
<path d="M137.377 51.7799C138.66 51.7799 139.7 50.7397 139.7 49.4568V40.164C139.7 40.1338 139.684 40.1106 139.684 40.0804C139.675 39.8266 139.624 39.5763 139.533 39.3393C139.533 39.3114 139.533 39.2789 139.512 39.251C139.399 38.9975 139.242 38.7661 139.047 38.568C138.978 38.507 138.906 38.4495 138.831 38.3961C138.727 38.2977 138.614 38.2091 138.494 38.1313L71.1219 0.960412C70.4241 0.572441 69.5755 0.572441 68.8777 0.960412L1.50553 38.1313C1.38531 38.2091 1.27264 38.2977 1.16867 38.3961C1.09375 38.4495 1.02144 38.507 0.952618 38.568C0.758052 38.7661 0.600947 38.9975 0.487982 39.251C0.487982 39.2789 0.487982 39.3114 0.467074 39.3393C0.375889 39.5763 0.325069 39.8266 0.316067 40.0804C0.316067 40.1106 0.299805 40.1338 0.299805 40.164L0.299805 49.4568C0.299805 50.7397 1.34001 51.7799 2.62298 51.7799L9.60181 51.7799L9.60181 121.475H2.63228C1.3493 121.475 0.309097 122.515 0.309097 123.798L0.309097 137.738C0.309097 139.021 1.3493 140.061 2.63228 140.061L137.377 140.061C138.66 140.061 139.7 139.021 139.7 137.738V123.798C139.7 122.515 138.66 121.475 137.377 121.475L130.407 121.475L130.407 51.7799H137.377ZM70.0044 5.64626L128.356 37.8409L11.6532 37.8409L70.0044 5.64626ZM135.053 126.122V135.414L4.95545 135.414L4.95545 126.122L135.053 126.122ZM14.2482 121.475L14.2482 51.7799L23.5409 51.7799L23.5409 121.475L14.2482 121.475ZM28.1872 121.475L28.1872 51.7799L111.822 51.7799L111.822 121.475L28.1872 121.475ZM116.468 121.475L116.468 51.7799L125.761 51.7799L125.761 121.475H116.468ZM4.95545 47.1336L4.95545 42.4872L135.053 42.4872V47.1336L4.95545 47.1336Z" fill="#222222"/>
</svg>
