<svg width="141" height="141" viewBox="0 0 141 141" fill="none" xmlns="http://www.w3.org/2000/svg">
<path d="M137.317 134.637H135.139L135.139 55.1357C135.139 53.632 133.92 52.4131 132.416 52.4131L110.635 52.4131C109.131 52.4131 107.912 53.632 107.912 55.1357L107.912 84.2682C107.912 85.7719 109.131 86.9908 110.635 86.9908C112.139 86.9908 113.358 85.7719 113.358 84.2682L113.358 57.8584H129.694L129.694 134.637H113.358V110.946C113.358 109.442 112.139 108.223 110.635 108.223C109.131 108.223 107.912 109.442 107.912 110.946V134.637H101.378L101.378 73.1053C101.378 71.6015 100.159 70.3826 98.6553 70.3826L76.874 70.3826C75.3703 70.3826 74.1514 71.6015 74.1514 73.1053L74.1514 134.637H66.5279V89.9857C66.5279 88.482 65.309 87.2631 63.8053 87.2631L42.024 87.2631C40.5203 87.2631 39.3014 88.482 39.3014 89.9857L39.3014 134.637H32.767L32.767 107.411C32.767 105.907 31.5481 104.688 30.0443 104.688H8.26309C6.75936 104.688 5.54043 105.907 5.54043 107.411L5.54043 134.637H3.3623C1.85858 134.637 0.639648 135.856 0.639648 137.36C0.639648 138.864 1.85858 140.083 3.3623 140.083L137.317 140.083C138.821 140.083 140.04 138.864 140.04 137.36C140.04 135.856 138.821 134.637 137.317 134.637ZM27.3217 134.637H10.9857L10.9857 110.133H27.3217L27.3217 134.637ZM61.0826 134.637H44.7467L44.7467 92.7084H61.0826L61.0826 134.637ZM95.9326 134.637L79.5967 134.637L79.5967 75.8279L95.9326 75.8279L95.9326 134.637Z" fill="#222222"/>
<path d="M112.56 95.1095C112.053 94.6031 111.351 94.3145 110.635 94.3145C109.919 94.3145 109.216 94.6031 108.71 95.1095C108.203 95.6159 107.912 96.3183 107.912 97.0371C107.912 97.7532 108.203 98.4529 108.71 98.962C109.216 99.4687 109.919 99.7598 110.635 99.7598C111.351 99.7598 112.053 99.4685 112.56 98.962C113.066 98.4529 113.357 97.7532 113.357 97.0371C113.357 96.3183 113.066 95.6159 112.56 95.1095Z" fill="#222222"/>
<path d="M119.347 0.682129C107.938 0.682129 98.6553 9.96448 98.6553 21.3743C98.6553 32.7842 107.938 42.0665 119.347 42.0665C130.757 42.0665 140.04 32.7842 140.04 21.3743C140.04 9.96448 130.757 0.682129 119.347 0.682129ZM119.347 29.2953C117.645 29.2953 116.26 28.151 116.26 26.7448C116.26 25.241 115.041 24.0221 113.537 24.0221C112.033 24.0221 110.814 25.241 110.814 26.7448C110.814 30.2616 113.251 33.2533 116.625 34.3208V36.3729C109.513 35.0848 104.101 28.8518 104.101 21.3743C104.101 13.8968 109.513 7.66384 116.625 6.37575V8.62221C113.251 9.68977 110.814 12.6814 110.814 16.1983C110.814 20.6073 114.642 24.1942 119.347 24.1942C121.05 24.1942 122.435 25.3382 122.435 26.7448C122.435 28.1513 121.05 29.2953 119.347 29.2953ZM122.07 36.3729V34.3208C125.444 33.2533 127.881 30.2616 127.881 26.7448C127.881 22.336 124.052 18.7489 119.347 18.7489C117.645 18.7489 116.26 17.6045 116.26 16.1983C116.26 14.792 117.645 13.6477 119.347 13.6477C121.05 13.6477 122.435 14.792 122.435 16.1983C122.435 17.702 123.654 18.9209 125.158 18.9209C126.662 18.9209 127.881 17.702 127.881 16.1983C127.881 12.6814 125.444 9.68977 122.07 8.62221V6.37575C129.182 7.66384 134.594 13.8968 134.594 21.3743C134.594 28.8518 129.182 35.0848 122.07 36.3729Z" fill="#222222"/>
<path d="M97.5654 35.9043H86.9062C85.4025 35.9043 84.1836 37.1232 84.1836 38.627C84.1836 40.1307 85.4025 41.3496 86.9062 41.3496L90.9921 41.3496L61.8818 70.4603L47.092 55.6705C46.0288 54.6076 44.3048 54.6076 43.2414 55.6705L13.6314 85.2802C12.5682 86.3434 12.5682 88.0674 13.6314 89.1306C14.1628 89.6623 14.8598 89.9283 15.5566 89.9283C16.2533 89.9283 16.9503 89.6623 17.4818 89.1309L45.1665 61.4461L59.9563 76.2358C61.0195 77.299 62.7435 77.299 63.8069 76.2358L94.8428 45.2V49.2862C94.8428 50.7899 96.0617 52.0088 97.5654 52.0088C99.0692 52.0088 100.288 50.7899 100.288 49.2862V38.627C100.288 37.1232 99.0692 35.9043 97.5654 35.9043Z" fill="#222222"/>
<path d="M10.4025 92.3597C9.89604 91.8533 9.1936 91.562 8.47754 91.562C7.76148 91.562 7.05903 91.8533 6.55262 92.3597C6.04621 92.8662 5.75488 93.5686 5.75488 94.2847C5.75488 95.0007 6.04621 95.7032 6.55262 96.2096C7.05903 96.7157 7.76148 97.0073 8.47754 97.0073C9.1936 97.0073 9.89604 96.716 10.4025 96.2096C10.9089 95.7032 11.2002 95.0007 11.2002 94.2847C11.2002 93.5686 10.9089 92.8662 10.4025 92.3597Z" fill="#222222"/>
</svg>
