<svg width="382" height="117" viewBox="0 0 382 117" fill="none" xmlns="http://www.w3.org/2000/svg">
<path d="M4.09889 0.167526C3.24521 0.168524 2.42677 0.507931 1.82313 1.11132C1.21948 1.71471 0.879906 2.53282 0.878906 3.38614V113.163C0.879906 114.016 1.21948 114.834 1.82313 115.437C2.42678 116.041 3.24521 116.38 4.09889 116.381H378.578C379.432 116.38 380.25 116.041 380.854 115.437C381.457 114.834 381.797 114.016 381.798 113.163V3.38609C381.797 2.53277 381.457 1.71466 380.854 1.11127C380.25 0.507884 379.432 0.168484 378.578 0.16748L4.09889 0.167526Z" fill="#E6E6E6"/>
<path d="M8.94824 108.316H373.729V8.2334H8.94824V108.316Z" fill="white"/>
<path d="M327.684 87.5532C326.983 87.5524 326.289 87.6897 325.641 87.9573C324.993 88.2248 324.404 88.6174 323.908 89.1125C323.412 89.6077 323.019 90.1957 322.75 90.843C322.482 91.4902 322.344 92.184 322.344 92.8847C322.344 93.5854 322.482 94.2792 322.75 94.9265C323.019 95.5737 323.412 96.1617 323.908 96.6569C324.404 97.1521 324.993 97.5446 325.641 97.8122C326.289 98.0797 326.983 98.217 327.684 98.2162H349.019C350.434 98.2162 351.79 97.6545 352.791 96.6547C353.791 95.6548 354.353 94.2987 354.353 92.8847C354.353 91.4707 353.791 90.1146 352.791 89.1148C351.79 88.1149 350.434 87.5532 349.019 87.5532H327.684Z" fill="#6C63FF"/>
<path d="M354.353 77.2119H108.064V78.6148H354.353V77.2119Z" fill="#E6E6E6"/>
<path d="M56.5826 89.3276C73.7402 89.3276 87.6491 75.4246 87.6491 58.2744C87.6491 41.1242 73.7402 27.2212 56.5826 27.2212C39.4251 27.2212 25.5161 41.1242 25.5161 58.2744C25.5161 75.4246 39.4251 89.3276 56.5826 89.3276Z" fill="#6C63FF"/>
<path d="M108.454 69.3792L107.676 68.212L133.269 51.1568L150.819 59.5774L176.062 43.4567L226.277 64.8679L266.266 45.2328L305.096 60.9684L353.888 17.7715L354.819 18.8216L305.376 62.5957L266.321 46.7685L226.318 66.4105L176.193 45.0376L150.916 61.1808L133.382 52.7684L108.454 69.3792Z" fill="#3F3D56"/>
<path d="M112.626 88.2866C112.026 88.2859 111.433 88.4032 110.879 88.632C110.325 88.8607 109.821 89.1964 109.397 89.6198C108.973 90.0432 108.636 90.5461 108.407 91.0996C108.177 91.6531 108.059 92.2464 108.059 92.8456C108.059 93.4448 108.177 94.038 108.407 94.5915C108.636 95.145 108.973 95.6479 109.397 96.0713C109.821 96.4947 110.325 96.8304 110.879 97.0591C111.433 97.2879 112.026 97.4052 112.626 97.4045H160.34C161.548 97.4029 162.707 96.9219 163.561 96.0671C164.415 95.2123 164.895 94.0537 164.895 92.8456C164.895 91.6375 164.415 90.4788 163.561 89.624C162.707 88.7692 161.548 88.2882 160.34 88.2866H112.626Z" fill="#E6E6E6"/>
<path d="M68.4476 44.3823H73.3019L63.2012 54.3741C61.4367 56.1125 59.0586 57.0871 56.581 57.0871C54.1035 57.0871 51.7254 56.1125 49.9609 54.3741L39.8615 44.3823H44.7158L52.3887 51.9728C53.5063 53.0739 55.0125 53.6912 56.5817 53.6912C58.151 53.6912 59.6572 53.0739 60.7747 51.9728L68.4476 44.3823ZM44.6541 72.1669H39.7998L49.9623 62.1134C51.7268 60.375 54.1049 59.4005 56.5824 59.4005C59.06 59.4005 61.4381 60.375 63.2026 62.1134L73.3651 72.1669H68.5108L60.7747 64.5148C59.6572 63.4136 58.151 62.7963 56.5818 62.7963C55.0125 62.7963 53.5063 63.4136 52.3888 64.5148L44.6541 72.1669Z" fill="white"/>
</svg>
