<svg width="382" height="117" viewBox="0 0 382 117" fill="none" xmlns="http://www.w3.org/2000/svg">
<path d="M3.62721 0.305687C2.77353 0.306682 1.95512 0.646091 1.35147 1.24948C0.747822 1.85287 0.408222 2.67095 0.407227 3.52427V113.301C0.408224 114.154 0.747822 114.972 1.35147 115.576C1.95512 116.179 2.77353 116.518 3.62721 116.519H378.107C378.96 116.518 379.779 116.179 380.382 115.576C380.986 114.972 381.325 114.154 381.326 113.301V3.52425C381.325 2.67094 380.986 1.85287 380.382 1.24948C379.779 0.646091 378.96 0.306665 378.107 0.305664L3.62721 0.305687Z" fill="#E6E6E6"/>
<path d="M8.47607 108.454H373.257V8.37158H8.47607V108.454Z" fill="white"/>
<path d="M327.212 87.6914C325.798 87.6914 324.441 88.2531 323.441 89.253C322.44 90.2528 321.878 91.6089 321.878 93.0229C321.878 94.4369 322.44 95.793 323.441 96.7928C324.441 97.7927 325.798 98.3544 327.212 98.3544H348.547C349.962 98.3544 351.318 97.7927 352.319 96.7928C353.319 95.793 353.881 94.4369 353.881 93.0229C353.881 91.6089 353.319 90.2528 352.319 89.253C351.318 88.2531 349.962 87.6914 348.547 87.6914H327.212Z" fill="#6C63FF"/>
<path d="M353.882 77.3496H107.593V78.7523H353.882V77.3496Z" fill="#E6E6E6"/>
<path d="M56.1109 89.4658C73.2684 89.4658 87.1774 75.5628 87.1774 58.4126C87.1774 41.2624 73.2684 27.3594 56.1109 27.3594C38.9533 27.3594 25.0444 41.2624 25.0444 58.4126C25.0444 75.5628 38.9533 89.4658 56.1109 89.4658Z" fill="#6C63FF"/>
<path d="M107.982 69.5169L107.204 68.3497L132.796 51.2952L150.347 59.7158L175.59 43.5952L175.931 43.7401L225.805 65.0063L265.794 45.3712L304.624 61.106L353.416 17.9092L354.347 18.9601L304.904 62.7334L265.849 46.907L225.846 66.5489L175.722 45.176L150.444 61.3185L132.91 52.9061L107.982 69.5169Z" fill="#3F3D56"/>
<path d="M112.154 88.4248C110.945 88.4248 109.784 88.9051 108.929 89.7601C108.074 90.6151 107.593 91.7746 107.593 92.9837C107.593 94.1928 108.074 95.3524 108.929 96.2074C109.784 97.0623 110.945 97.5427 112.154 97.5427H159.868C161.078 97.5427 162.238 97.0623 163.093 96.2074C163.949 95.3524 164.429 94.1928 164.429 92.9837C164.429 91.7746 163.949 90.6151 163.093 89.7601C162.238 88.9051 161.078 88.4248 159.868 88.4248H112.154Z" fill="#E6E6E6"/>
<path d="M56.1074 78.8786L68.6837 61.1748L56.1074 68.5971L43.5386 61.1748L56.1066 78.8786H56.1074Z" fill="white"/>
<path d="M56.1066 66.2182H56.1074L68.6762 58.7922L56.1074 37.9463H56.1066L43.5386 58.7922L56.1066 66.2182Z" fill="white"/>
</svg>
