<svg width="122" height="132" viewBox="0 0 122 132" fill="none" xmlns="http://www.w3.org/2000/svg">
<path d="M119.66 32.0876H86.1945C87.6416 31.0989 89.0008 29.9863 90.2553 28.7636C98.0105 20.9851 98.2646 9.19129 93.3104 4.23707C88.3561 -0.717139 76.5666 -0.467311 68.7796 7.29641C65.5954 10.7622 63.0081 14.732 61.1239 19.0447C59.2396 14.7288 56.6502 10.7569 53.4628 7.29006C45.6843 -0.465194 33.8916 -0.719255 28.9363 4.23496C23.98 9.18917 24.2361 20.983 31.9924 28.7636C33.2479 29.9863 34.6072 31.0989 36.0532 32.0876H2.58792C1.39065 32.0876 0.419922 33.0583 0.419922 34.2556V55.9356C0.419922 57.1328 1.39065 58.1036 2.58792 58.1036H6.92391V120.975C6.93132 126.959 11.7807 131.808 17.7639 131.815H104.484C110.468 131.808 115.317 126.959 115.324 120.975V58.1036H119.66C120.857 58.1036 121.828 57.1328 121.828 55.9356V34.2556C121.828 33.0583 120.857 32.0876 119.66 32.0876ZM71.8474 10.36C78.0783 4.14815 87.1663 4.22014 90.2468 7.30064C93.3273 10.3811 93.4014 19.4649 87.1896 25.6979C84.3451 28.3275 81.0974 30.4838 77.5702 32.0876H64.6151C64.6151 32.0421 64.6151 31.9923 64.6151 31.9468C64.6151 31.4524 64.578 30.9517 64.5304 30.4478C64.5124 30.2816 64.4934 30.1165 64.4743 29.9471C64.4245 29.5311 64.3631 29.1161 64.289 28.7033C64.2658 28.5582 64.2414 28.4122 64.216 28.2692C64.1123 27.7294 63.999 27.1979 63.8688 26.6845C63.8518 26.6104 63.8317 26.5459 63.8148 26.4675C63.6994 26.0187 63.5808 25.6005 63.4591 25.1676C63.4422 25.1083 63.4263 25.0437 63.4094 24.9844C65.1857 19.5814 68.0587 14.6018 71.8474 10.36ZM69.7958 53.7676H52.4519V36.4236H69.7958V53.7676ZM35.0602 25.7C28.8474 19.467 28.9204 10.3833 32.002 7.30064C35.0825 4.21802 44.1663 4.14604 50.395 10.3536C54.3393 14.7722 57.296 19.9826 59.067 25.6355C59.3115 26.3966 59.5 27.127 59.6778 27.8363C59.7276 28.0395 59.7689 28.2364 59.8123 28.4365C59.9298 28.9658 60.024 29.4707 60.0949 29.9545C60.1182 30.1186 60.1489 30.288 60.1679 30.4478C60.2368 30.9888 60.2738 31.5339 60.2791 32.0791H44.6776C41.1524 30.4785 37.9057 28.3253 35.0602 25.7ZM4.75592 36.4236H48.1159V53.7676H4.75592V36.4236ZM11.2599 120.975V58.1036H52.4519V127.479H17.7639C14.1721 127.479 11.2599 124.567 11.2599 120.975ZM56.7879 127.479V58.1036H65.4598V127.479H56.7879ZM110.988 120.975C110.988 124.567 108.077 127.479 104.484 127.479H69.7958V58.1036H110.988V120.975ZM117.492 53.7676H74.1318V36.4236H117.492V53.7676Z" fill="#222222"/>
</svg>
