<?xml version="1.0" ?><svg viewBox="0 0 96 96" xmlns="http://www.w3.org/2000/svg"><title/><g data-name="Customer Review" id="Customer_Review"><path d="M69.54,20H26.46A10.47,10.47,0,0,0,16,30.46V54.54A10.47,10.47,0,0,0,26.46,65h11.8l9.35,11.81a.5.5,0,0,0,.78,0L57.74,65h11.8A10.47,10.47,0,0,0,80,54.54V30.46A10.47,10.47,0,0,0,69.54,20ZM79,54.54A9.48,9.48,0,0,1,69.54,64h-12a.49.49,0,0,0-.39.19L48,75.69l-9.11-11.5A.49.49,0,0,0,38.5,64h-12A9.48,9.48,0,0,1,17,54.54V30.46A9.48,9.48,0,0,1,26.46,21H69.54A9.48,9.48,0,0,1,79,30.46Z"/><polygon points="27.52 41.04 26.07 38.11 24.63 41.04 21.4 41.51 23.74 43.78 23.18 47 26.07 45.48 28.96 47 28.41 43.78 30.75 41.51 27.52 41.04"/><polygon points="38.36 41.04 36.92 38.11 35.48 41.04 32.25 41.51 34.58 43.78 34.03 47 36.92 45.48 39.81 47 39.26 43.78 41.59 41.51 38.36 41.04"/><polygon points="49.21 41.04 47.77 38.11 46.32 41.04 43.09 41.51 45.43 43.78 44.88 47 47.77 45.48 50.66 47 50.1 43.78 52.44 41.51 49.21 41.04"/><path d="M60.06,41l-1.45-2.93L57.17,41l-3.23.47,2.34,2.27L55.73,47l2.88-1.52L61.5,47,61,43.78l2.34-2.27Zm.19,2-.37.36L60,44l.2,1.22-1.09-.57-.47-.25-.46.25-1.09.57.2-1.22.09-.52L57,43.07l-.89-.87L57.31,42l.52-.08.24-.47.54-1.11.55,1.11.23.47.53.08,1.22.17Z"/><path d="M70.91,41l-1.45-2.93L68,41l-3.23.47,2.34,2.27L66.57,47l2.89-1.52L72.35,47l-.55-3.22,2.34-2.27Zm.19,2-.38.36.09.52L71,45.17l-1.09-.57-.47-.25L69,44.6l-1.1.57L68.11,44l.09-.52-.38-.36-.88-.87L68.16,42l.52-.08.24-.47.54-1.11L70,41.48l.23.47.52.08L72,42.2Z"/></g></svg>