<svg width="14" height="17" viewBox="0 0 14 17" fill="none" xmlns="http://www.w3.org/2000/svg">
<path d="M7.29948 16.6968C8.21615 16.6968 8.96614 15.9468 8.96614 15.0301H5.63281C5.63281 15.9468 6.38281 16.6968 7.29948 16.6968ZM12.2995 11.6968V7.53011C12.2995 4.97178 10.9411 2.83011 8.54948 2.26344V1.69678C8.54948 1.00511 7.99115 0.446777 7.29948 0.446777C6.60781 0.446777 6.04948 1.00511 6.04948 1.69678V2.26344C3.66615 2.83011 2.29948 4.96344 2.29948 7.53011V11.6968L0.632812 13.3634V14.1968H13.9661V13.3634L12.2995 11.6968ZM10.6328 12.5301H3.96615V7.53011C3.96615 5.46344 5.22448 3.78011 7.29948 3.78011C9.37448 3.78011 10.6328 5.46344 10.6328 7.53011V12.5301Z" fill="#03B2BA"/>
</svg>
