<svg width="14" height="18" viewBox="0 0 14 18" fill="none" xmlns="http://www.w3.org/2000/svg">
<path d="M12.2985 6.03158H11.4652V4.36491C11.4652 2.06491 9.5985 0.198242 7.2985 0.198242C4.9985 0.198242 3.13184 2.06491 3.13184 4.36491V6.03158H2.2985C1.38184 6.03158 0.631836 6.78158 0.631836 7.69824V16.0316C0.631836 16.9482 1.38184 17.6982 2.2985 17.6982H12.2985C13.2152 17.6982 13.9652 16.9482 13.9652 16.0316V7.69824C13.9652 6.78158 13.2152 6.03158 12.2985 6.03158ZM4.7985 4.36491C4.7985 2.98158 5.91517 1.86491 7.2985 1.86491C8.68184 1.86491 9.7985 2.98158 9.7985 4.36491V6.03158H4.7985V4.36491ZM12.2985 16.0316H2.2985V7.69824H12.2985V16.0316ZM7.2985 13.5316C8.21517 13.5316 8.96517 12.7816 8.96517 11.8649C8.96517 10.9482 8.21517 10.1982 7.2985 10.1982C6.38184 10.1982 5.63184 10.9482 5.63184 11.8649C5.63184 12.7816 6.38184 13.5316 7.2985 13.5316Z" fill="#03B2BA"/>
</svg>
