<svg width="14" height="14" viewBox="0 0 14 14" fill="none" xmlns="http://www.w3.org/2000/svg">
<path d="M6.92253 1.92415C7.88919 1.92415 8.67253 2.70749 8.67253 3.67415C8.67253 4.64082 7.88919 5.42415 6.92253 5.42415C5.95586 5.42415 5.17253 4.64082 5.17253 3.67415C5.17253 2.70749 5.95586 1.92415 6.92253 1.92415ZM6.92253 9.42415C9.39752 9.42415 12.0059 10.6408 12.0059 11.1742V12.0908H1.83919V11.1742C1.83919 10.6408 4.44753 9.42415 6.92253 9.42415ZM6.92253 0.34082C5.08086 0.34082 3.58919 1.83249 3.58919 3.67415C3.58919 5.51582 5.08086 7.00749 6.92253 7.00749C8.76419 7.00749 10.2559 5.51582 10.2559 3.67415C10.2559 1.83249 8.76419 0.34082 6.92253 0.34082ZM6.92253 7.84082C4.69753 7.84082 0.255859 8.95749 0.255859 11.1742V13.6742H13.5892V11.1742C13.5892 8.95749 9.14752 7.84082 6.92253 7.84082Z" fill="#03B2BA"/>
</svg>
