<svg width="331" height="190" viewBox="0 0 331 190" fill="none" xmlns="http://www.w3.org/2000/svg">
<g filter="url(#filter0_d)">
<rect x="17.958" y="11" width="300" height="160" rx="15" fill="white"/>
</g>
<path d="M55.3096 50.4072C55.3096 52.057 54.8607 53.3193 53.9629 54.1943C53.0697 55.0648 51.7822 55.5 50.1006 55.5H47.332V45.5059H50.3945C51.9486 45.5059 53.1562 45.9365 54.0176 46.7979C54.8789 47.6592 55.3096 48.8623 55.3096 50.4072ZM54.0791 50.4482C54.0791 49.1449 53.751 48.1628 53.0947 47.502C52.443 46.8411 51.4723 46.5107 50.1826 46.5107H48.4941V54.4951H49.9092C51.2946 54.4951 52.3359 54.1556 53.0332 53.4766C53.7305 52.793 54.0791 51.7835 54.0791 50.4482ZM59.6288 55.5H58.494V48.0078H59.6288V55.5ZM58.3983 45.9775C58.3983 45.7178 58.4621 45.5286 58.5897 45.4102C58.7173 45.2871 58.8768 45.2256 59.0682 45.2256C59.2505 45.2256 59.4078 45.2871 59.5399 45.4102C59.6721 45.5332 59.7382 45.7223 59.7382 45.9775C59.7382 46.2327 59.6721 46.4242 59.5399 46.5518C59.4078 46.6748 59.2505 46.7363 59.0682 46.7363C58.8768 46.7363 58.7173 46.6748 58.5897 46.5518C58.4621 46.4242 58.3983 46.2327 58.3983 45.9775ZM67.7625 55.5L67.5369 54.4336H67.4822C67.1085 54.903 66.7348 55.222 66.3611 55.3906C65.992 55.5547 65.5294 55.6367 64.9734 55.6367C64.2306 55.6367 63.6472 55.4453 63.2234 55.0625C62.8041 54.6797 62.5945 54.1351 62.5945 53.4287C62.5945 51.9157 63.8045 51.1227 66.2244 51.0498L67.4959 51.0088V50.5439C67.4959 49.9561 67.3683 49.5231 67.113 49.2451C66.8624 48.9626 66.4591 48.8213 65.9031 48.8213C65.2787 48.8213 64.5724 49.0127 63.7839 49.3955L63.4353 48.5273C63.8045 48.3268 64.2078 48.1696 64.6453 48.0557C65.0873 47.9417 65.5294 47.8848 65.9714 47.8848C66.8647 47.8848 67.5255 48.083 67.9539 48.4795C68.3868 48.876 68.6033 49.5117 68.6033 50.3867V55.5H67.7625ZM65.199 54.7002C65.9054 54.7002 66.4591 54.5065 66.8601 54.1191C67.2657 53.7318 67.4685 53.1895 67.4685 52.4922V51.8154L66.3337 51.8633C65.4314 51.8952 64.7797 52.0365 64.3787 52.2871C63.9822 52.5332 63.7839 52.9183 63.7839 53.4424C63.7839 53.8525 63.907 54.1647 64.1531 54.3789C64.4037 54.5931 64.7524 54.7002 65.199 54.7002ZM81.6178 55.5V50.626C81.6178 50.029 81.4902 49.5824 81.235 49.2861C80.9798 48.9854 80.5833 48.835 80.0455 48.835C79.3392 48.835 78.8174 49.0378 78.4801 49.4434C78.1429 49.849 77.9743 50.4733 77.9743 51.3164V55.5H76.8395V50.626C76.8395 50.029 76.7119 49.5824 76.4567 49.2861C76.2015 48.9854 75.8027 48.835 75.2604 48.835C74.5495 48.835 74.0276 49.0492 73.695 49.4775C73.3668 49.9014 73.2028 50.5986 73.2028 51.5693V55.5H72.068V48.0078H72.9909L73.1754 49.0332H73.2301C73.4443 48.6686 73.7451 48.3838 74.1325 48.1787C74.5244 47.9736 74.9619 47.8711 75.445 47.8711C76.6162 47.8711 77.3818 48.2949 77.7418 49.1426H77.7965C78.0198 48.7507 78.3434 48.4408 78.7672 48.2129C79.1911 47.985 79.6741 47.8711 80.2164 47.8711C81.0641 47.8711 81.6976 48.0898 82.1168 48.5273C82.5407 48.9603 82.7526 49.6553 82.7526 50.6123V55.5H81.6178ZM92.6841 51.7471C92.6841 52.9684 92.3765 53.9232 91.7612 54.6113C91.146 55.2949 90.2961 55.6367 89.2114 55.6367C88.5415 55.6367 87.9468 55.4795 87.4273 55.165C86.9077 54.8506 86.5067 54.3994 86.2241 53.8115C85.9416 53.2236 85.8003 52.5355 85.8003 51.7471C85.8003 50.5257 86.1057 49.5755 86.7163 48.8965C87.327 48.2129 88.1747 47.8711 89.2593 47.8711C90.3075 47.8711 91.1392 48.2197 91.7544 48.917C92.3742 49.6143 92.6841 50.5576 92.6841 51.7471ZM86.9761 51.7471C86.9761 52.7041 87.1675 53.4333 87.5503 53.9346C87.9331 54.4359 88.496 54.6865 89.2388 54.6865C89.9816 54.6865 90.5445 54.4382 90.9273 53.9414C91.3146 53.4401 91.5083 52.7087 91.5083 51.7471C91.5083 50.7946 91.3146 50.0723 90.9273 49.5801C90.5445 49.0833 89.9771 48.835 89.2251 48.835C88.4823 48.835 87.9217 49.0788 87.5435 49.5664C87.1652 50.054 86.9761 50.7809 86.9761 51.7471ZM100.927 55.5V50.6533C100.927 50.0426 100.788 49.5869 100.51 49.2861C100.232 48.9854 99.7969 48.835 99.2045 48.835C98.4206 48.835 97.8464 49.0469 97.4818 49.4707C97.1173 49.8945 96.935 50.5941 96.935 51.5693V55.5H95.8002V48.0078H96.723L96.9076 49.0332H96.9623C97.1947 48.6641 97.5206 48.3792 97.9398 48.1787C98.3591 47.9736 98.8262 47.8711 99.3412 47.8711C100.244 47.8711 100.923 48.0898 101.378 48.5273C101.834 48.9603 102.062 49.6553 102.062 50.6123V55.5H100.927ZM110.619 54.4951H110.558C110.034 55.2562 109.25 55.6367 108.206 55.6367C107.227 55.6367 106.463 55.3018 105.916 54.6318C105.374 53.9619 105.103 53.0094 105.103 51.7744C105.103 50.5394 105.376 49.5801 105.923 48.8965C106.47 48.2129 107.231 47.8711 108.206 47.8711C109.223 47.8711 110.002 48.2402 110.544 48.9785H110.633L110.585 48.4385L110.558 47.9121V44.8633H111.693V55.5H110.77L110.619 54.4951ZM108.35 54.6865C109.125 54.6865 109.685 54.4769 110.032 54.0576C110.382 53.6338 110.558 52.9525 110.558 52.0137V51.7744C110.558 50.7126 110.38 49.9561 110.025 49.5049C109.674 49.0492 109.111 48.8213 108.336 48.8213C107.671 48.8213 107.16 49.0811 106.805 49.6006C106.454 50.1156 106.279 50.8447 106.279 51.7881C106.279 52.7451 106.454 53.4674 106.805 53.9551C107.156 54.4427 107.671 54.6865 108.35 54.6865ZM119.354 52.2666V51.2275H122.71V52.2666H119.354ZM131.116 55.5L135.259 46.5518H129.81V45.5059H136.462V46.415L132.374 55.5H131.116ZM145.607 50.4893C145.607 52.2165 145.334 53.5062 144.787 54.3584C144.244 55.2106 143.413 55.6367 142.292 55.6367C141.216 55.6367 140.398 55.2015 139.838 54.3311C139.277 53.4561 138.997 52.1755 138.997 50.4893C138.997 48.7484 139.268 47.4564 139.81 46.6133C140.353 45.7702 141.18 45.3486 142.292 45.3486C143.376 45.3486 144.199 45.7884 144.759 46.668C145.325 47.5475 145.607 48.8213 145.607 50.4893ZM140.145 50.4893C140.145 51.943 140.316 53.0026 140.658 53.668C141 54.3288 141.544 54.6592 142.292 54.6592C143.048 54.6592 143.595 54.3242 143.932 53.6543C144.274 52.9798 144.445 51.9248 144.445 50.4893C144.445 49.0537 144.274 48.0033 143.932 47.3379C143.595 46.668 143.048 46.333 142.292 46.333C141.544 46.333 141 46.6634 140.658 47.3242C140.316 47.9805 140.145 49.0355 140.145 50.4893ZM149.086 48.4863C149.086 49.2611 149.17 49.8421 149.338 50.2295C149.507 50.6169 149.78 50.8105 150.159 50.8105C150.906 50.8105 151.28 50.0358 151.28 48.4863C151.28 46.946 150.906 46.1758 150.159 46.1758C149.78 46.1758 149.507 46.3672 149.338 46.75C149.17 47.1328 149.086 47.7116 149.086 48.4863ZM152.216 48.4863C152.216 49.5254 152.041 50.3115 151.69 50.8447C151.344 51.3734 150.833 51.6377 150.159 51.6377C149.521 51.6377 149.024 51.3665 148.669 50.8242C148.318 50.2819 148.142 49.5026 148.142 48.4863C148.142 47.4518 148.311 46.6725 148.648 46.1484C148.99 45.6243 149.493 45.3623 150.159 45.3623C150.82 45.3623 151.328 45.6335 151.683 46.1758C152.039 46.7181 152.216 47.4883 152.216 48.4863ZM155.101 52.4922C155.101 53.2715 155.185 53.8548 155.354 54.2422C155.523 54.625 155.798 54.8164 156.181 54.8164C156.564 54.8164 156.847 54.6273 157.029 54.249C157.211 53.8662 157.302 53.2806 157.302 52.4922C157.302 51.7129 157.211 51.1364 157.029 50.7627C156.847 50.3844 156.564 50.1953 156.181 50.1953C155.798 50.1953 155.523 50.3844 155.354 50.7627C155.185 51.1364 155.101 51.7129 155.101 52.4922ZM158.239 52.4922C158.239 53.5267 158.063 54.3105 157.712 54.8438C157.366 55.3724 156.856 55.6367 156.181 55.6367C155.534 55.6367 155.035 55.3656 154.684 54.8232C154.338 54.2809 154.165 53.5039 154.165 52.4922C154.165 51.4577 154.333 50.6784 154.67 50.1543C155.012 49.6302 155.516 49.3682 156.181 49.3682C156.828 49.3682 157.332 49.637 157.692 50.1748C158.057 50.708 158.239 51.4805 158.239 52.4922ZM156.475 45.5059L150.931 55.5H149.926L155.47 45.5059H156.475ZM167.369 51.3438V55.5H166.207V45.5059H168.949C170.174 45.5059 171.079 45.7406 171.662 46.21C172.25 46.6794 172.544 47.3857 172.544 48.3291C172.544 49.6507 171.874 50.5439 170.534 51.0088L173.248 55.5H171.874L169.454 51.3438H167.369ZM167.369 50.3457H168.962C169.783 50.3457 170.384 50.1839 170.767 49.8604C171.15 49.5322 171.341 49.0423 171.341 48.3906C171.341 47.7298 171.145 47.2536 170.753 46.9619C170.366 46.6702 169.742 46.5244 168.88 46.5244H167.369V50.3457ZM184.656 50.4893C184.656 52.0889 184.251 53.3467 183.44 54.2627C182.633 55.1787 181.51 55.6367 180.07 55.6367C178.598 55.6367 177.46 55.1878 176.658 54.29C175.861 53.3877 175.462 52.1162 175.462 50.4756C175.462 48.8486 175.863 47.5885 176.665 46.6953C177.467 45.7975 178.607 45.3486 180.083 45.3486C181.519 45.3486 182.64 45.8044 183.446 46.7158C184.253 47.6273 184.656 48.8851 184.656 50.4893ZM176.693 50.4893C176.693 51.8428 176.98 52.8704 177.554 53.5723C178.133 54.2695 178.971 54.6182 180.07 54.6182C181.177 54.6182 182.013 54.2695 182.578 53.5723C183.143 52.875 183.426 51.8473 183.426 50.4893C183.426 49.1449 183.143 48.1263 182.578 47.4336C182.018 46.7363 181.186 46.3877 180.083 46.3877C178.976 46.3877 178.133 46.7386 177.554 47.4404C176.98 48.1377 176.693 49.154 176.693 50.4893ZM188.012 55.5V45.5059H189.174V55.5H188.012Z" fill="#232323" fill-opacity="0.92"/>
<path d="M61.9541 96.8057C61.9541 98.3584 61.3926 99.6084 60.2695 100.556C59.1465 101.493 57.5742 102.055 55.5527 102.24V105.243H53.5459V102.299C51.1631 102.25 49.0732 101.83 47.2764 101.039V97.1719C48.126 97.5918 49.1465 97.9629 50.3379 98.2852C51.5391 98.6074 52.6084 98.7979 53.5459 98.8564V94.3154L52.5645 93.9346C50.6309 93.1729 49.2588 92.3477 48.4482 91.459C47.6475 90.5605 47.2471 89.4521 47.2471 88.1338C47.2471 86.7178 47.7988 85.5557 48.9023 84.6475C50.0156 83.7295 51.5635 83.1729 53.5459 82.9775V80.7363H55.5527V82.9189C57.7891 83.0166 59.8105 83.4658 61.6172 84.2666L60.2402 87.6943C58.7168 87.0693 57.1543 86.6885 55.5527 86.5518V90.873C57.457 91.6055 58.8096 92.2402 59.6104 92.7773C60.4209 93.3145 61.0117 93.9053 61.3828 94.5498C61.7637 95.1943 61.9541 95.9463 61.9541 96.8057ZM57.5449 97.0254C57.5449 96.6152 57.3789 96.2686 57.0469 95.9854C56.7148 95.7021 56.2168 95.4092 55.5527 95.1064V98.7539C56.8809 98.5293 57.5449 97.9531 57.5449 97.0254ZM51.6562 88.1338C51.6562 88.5635 51.8027 88.9199 52.0957 89.2031C52.3984 89.4766 52.8818 89.7598 53.5459 90.0527V86.6104C52.2861 86.7959 51.6562 87.3037 51.6562 88.1338ZM72.9908 89.8184C75.0611 89.8184 76.7066 90.3994 77.9273 91.5615C79.1578 92.7236 79.773 94.3154 79.773 96.3369C79.773 98.7295 79.0357 100.57 77.5611 101.859C76.0865 103.148 73.9771 103.793 71.233 103.793C68.8502 103.793 66.9264 103.407 65.4615 102.636V98.7246C66.233 99.1348 67.1314 99.4717 68.1568 99.7354C69.1822 99.9893 70.1539 100.116 71.0719 100.116C73.8355 100.116 75.2174 98.9834 75.2174 96.7178C75.2174 94.5596 73.7867 93.4805 70.9254 93.4805C70.4078 93.4805 69.8365 93.5342 69.2115 93.6416C68.5865 93.7393 68.0787 93.8467 67.6881 93.9639L65.8863 92.9971L66.692 82.084H78.3082V85.9219H70.6617L70.2662 90.126L70.7789 90.0234C71.3746 89.8867 72.1119 89.8184 72.9908 89.8184ZM98.09 92.792C98.09 96.5322 97.4748 99.3008 96.2443 101.098C95.0236 102.895 93.1389 103.793 90.59 103.793C88.1193 103.793 86.2541 102.865 84.9943 101.01C83.7443 99.1543 83.1193 96.415 83.1193 92.792C83.1193 89.0127 83.7297 86.2295 84.9504 84.4424C86.1711 82.6455 88.051 81.7471 90.59 81.7471C93.0607 81.7471 94.926 82.6846 96.1857 84.5596C97.4553 86.4346 98.09 89.1787 98.09 92.792ZM87.6164 92.792C87.6164 95.4189 87.841 97.3037 88.2902 98.4463C88.7492 99.5791 89.5158 100.146 90.59 100.146C91.6447 100.146 92.4064 99.5693 92.8752 98.417C93.3439 97.2646 93.5783 95.3896 93.5783 92.792C93.5783 90.165 93.3391 88.2803 92.8605 87.1377C92.3918 85.9854 91.635 85.4092 90.59 85.4092C89.5256 85.4092 88.7639 85.9854 88.3049 87.1377C87.8459 88.2803 87.6164 90.165 87.6164 92.792ZM119.996 103.5H114.84L109.229 94.4766L107.31 95.8535V103.5H102.769V82.084H107.31V91.8838L109.097 89.3643L114.898 82.084H119.937L112.467 91.5615L119.996 103.5ZM130.482 97.2891V93.627H138.349V97.2891H130.482ZM164.846 96.8057C164.846 98.3584 164.284 99.6084 163.161 100.556C162.038 101.493 160.466 102.055 158.445 102.24V105.243H156.438V102.299C154.055 102.25 151.965 101.83 150.168 101.039V97.1719C151.018 97.5918 152.038 97.9629 153.23 98.2852C154.431 98.6074 155.5 98.7979 156.438 98.8564V94.3154L155.456 93.9346C153.523 93.1729 152.151 92.3477 151.34 91.459C150.539 90.5605 150.139 89.4521 150.139 88.1338C150.139 86.7178 150.691 85.5557 151.794 84.6475C152.907 83.7295 154.455 83.1729 156.438 82.9775V80.7363H158.445V82.9189C160.681 83.0166 162.702 83.4658 164.509 84.2666L163.132 87.6943C161.609 87.0693 160.046 86.6885 158.445 86.5518V90.873C160.349 91.6055 161.701 92.2402 162.502 92.7773C163.313 93.3145 163.904 93.9053 164.275 94.5498C164.655 95.1943 164.846 95.9463 164.846 96.8057ZM160.437 97.0254C160.437 96.6152 160.271 96.2686 159.939 95.9854C159.607 95.7021 159.109 95.4092 158.445 95.1064V98.7539C159.773 98.5293 160.437 97.9531 160.437 97.0254ZM154.548 88.1338C154.548 88.5635 154.695 88.9199 154.988 89.2031C155.29 89.4766 155.774 89.7598 156.438 90.0527V86.6104C155.178 86.7959 154.548 87.3037 154.548 88.1338ZM183.544 99.0615H180.966V103.5H176.542V99.0615H167.401V95.9121L176.791 82.084H180.966V95.5459H183.544V99.0615ZM176.542 95.5459V91.9131C176.542 91.3076 176.566 90.4287 176.615 89.2764C176.664 88.124 176.703 87.4551 176.732 87.2695H176.615C176.254 88.0703 175.819 88.8516 175.311 89.6133L171.386 95.5459H176.542ZM201.011 91.2246C201.011 95.4434 200.122 98.5928 198.345 100.673C196.568 102.753 193.877 103.793 190.274 103.793C189.004 103.793 188.042 103.725 187.388 103.588V99.9551C188.208 100.16 189.068 100.263 189.966 100.263C191.48 100.263 192.725 100.043 193.702 99.6035C194.678 99.1543 195.425 98.4561 195.943 97.5088C196.46 96.5518 196.758 95.2383 196.836 93.5684H196.661C196.094 94.4863 195.44 95.1309 194.698 95.502C193.955 95.873 193.028 96.0586 191.914 96.0586C190.049 96.0586 188.579 95.4629 187.505 94.2715C186.431 93.0703 185.894 91.4053 185.894 89.2764C185.894 86.9814 186.543 85.1699 187.842 83.8418C189.151 82.5039 190.928 81.835 193.174 81.835C194.756 81.835 196.138 82.2061 197.32 82.9482C198.511 83.6904 199.424 84.7695 200.059 86.1855C200.694 87.5918 201.011 89.2715 201.011 91.2246ZM193.262 85.4678C192.325 85.4678 191.592 85.79 191.065 86.4346C190.538 87.0791 190.274 88.0068 190.274 89.2178C190.274 90.2529 190.513 91.0732 190.992 91.6787C191.47 92.2842 192.198 92.5869 193.174 92.5869C194.092 92.5869 194.878 92.2891 195.533 91.6934C196.187 91.0879 196.514 90.3945 196.514 89.6133C196.514 88.4512 196.206 87.4697 195.591 86.6689C194.986 85.8682 194.209 85.4678 193.262 85.4678ZM219.05 91.2246C219.05 95.4434 218.161 98.5928 216.384 100.673C214.606 102.753 211.916 103.793 208.312 103.793C207.043 103.793 206.081 103.725 205.427 103.588V99.9551C206.247 100.16 207.106 100.263 208.005 100.263C209.519 100.263 210.764 100.043 211.74 99.6035C212.717 99.1543 213.464 98.4561 213.981 97.5088C214.499 96.5518 214.797 95.2383 214.875 93.5684H214.699C214.133 94.4863 213.479 95.1309 212.736 95.502C211.994 95.873 211.066 96.0586 209.953 96.0586C208.088 96.0586 206.618 95.4629 205.544 94.2715C204.47 93.0703 203.933 91.4053 203.933 89.2764C203.933 86.9814 204.582 85.1699 205.881 83.8418C207.189 82.5039 208.967 81.835 211.213 81.835C212.795 81.835 214.177 82.2061 215.358 82.9482C216.55 83.6904 217.463 84.7695 218.098 86.1855C218.732 87.5918 219.05 89.2715 219.05 91.2246ZM211.301 85.4678C210.363 85.4678 209.631 85.79 209.104 86.4346C208.576 87.0791 208.312 88.0068 208.312 89.2178C208.312 90.2529 208.552 91.0732 209.03 91.6787C209.509 92.2842 210.236 92.5869 211.213 92.5869C212.131 92.5869 212.917 92.2891 213.571 91.6934C214.226 91.0879 214.553 90.3945 214.553 89.6133C214.553 88.4512 214.245 87.4697 213.63 86.6689C213.024 85.8682 212.248 85.4678 211.301 85.4678ZM240.926 103.5H235.77L230.16 94.4766L228.241 95.8535V103.5H223.7V82.084H228.241V91.8838L230.028 89.3643L235.829 82.084H240.868L233.397 91.5615L240.926 103.5Z" fill="#EF0374" fill-opacity="0.8"/>
<path d="M53.1182 131.924C53.1182 132.863 52.7965 133.587 52.1533 134.095C51.5143 134.598 50.5981 134.85 49.4048 134.85H48.313V138.5H47.2339V129.22H49.6396C51.9587 129.22 53.1182 130.121 53.1182 131.924ZM48.313 133.923H49.2842C50.2406 133.923 50.9325 133.769 51.3599 133.46C51.7873 133.151 52.001 132.656 52.001 131.975C52.001 131.361 51.8 130.904 51.3979 130.604C50.9959 130.303 50.3696 130.153 49.519 130.153H48.313V133.923ZM58.342 131.416C58.651 131.416 58.9281 131.441 59.1736 131.492L59.0276 132.47C58.7398 132.406 58.4859 132.375 58.2659 132.375C57.703 132.375 57.2206 132.603 56.8186 133.06C56.4208 133.517 56.2219 134.086 56.2219 134.768V138.5H55.1682V131.543H56.0378L56.1584 132.832H56.2092C56.4674 132.379 56.7784 132.03 57.1423 131.784C57.5063 131.539 57.9062 131.416 58.342 131.416ZM66.7397 135.015C66.7397 136.149 66.4541 137.036 65.8828 137.675C65.3115 138.31 64.5223 138.627 63.5151 138.627C62.893 138.627 62.3408 138.481 61.8584 138.189C61.376 137.897 61.0036 137.478 60.7412 136.932C60.4788 136.386 60.3476 135.747 60.3476 135.015C60.3476 133.881 60.6312 132.999 61.1982 132.368C61.7653 131.733 62.5524 131.416 63.5596 131.416C64.5329 131.416 65.3052 131.74 65.8764 132.387C66.452 133.035 66.7397 133.911 66.7397 135.015ZM61.4394 135.015C61.4394 135.904 61.6172 136.581 61.9726 137.046C62.3281 137.512 62.8507 137.745 63.5405 137.745C64.2303 137.745 64.7529 137.514 65.1084 137.053C65.4681 136.587 65.6479 135.908 65.6479 135.015C65.6479 134.131 65.4681 133.46 65.1084 133.003C64.7529 132.542 64.2261 132.311 63.5278 132.311C62.838 132.311 62.3175 132.537 61.9663 132.99C61.6151 133.443 61.4394 134.118 61.4394 135.015ZM71.989 132.362H70.218V138.5H69.1643V132.362H67.9201V131.886L69.1643 131.505V131.118C69.1643 129.408 69.9112 128.553 71.405 128.553C71.7732 128.553 72.2048 128.627 72.6999 128.775L72.427 129.62C72.0207 129.488 71.6737 129.423 71.386 129.423C70.9882 129.423 70.6941 129.556 70.5036 129.823C70.3132 130.085 70.218 130.508 70.218 131.092V131.543H71.989V132.362ZM74.3122 138.5H73.2585V131.543H74.3122V138.5ZM73.1696 129.658C73.1696 129.417 73.2289 129.241 73.3474 129.131C73.4659 129.017 73.614 128.959 73.7917 128.959C73.961 128.959 74.107 129.017 74.2297 129.131C74.3524 129.245 74.4138 129.421 74.4138 129.658C74.4138 129.895 74.3524 130.072 74.2297 130.191C74.107 130.305 73.961 130.362 73.7917 130.362C73.614 130.362 73.4659 130.305 73.3474 130.191C73.2289 130.072 73.1696 129.895 73.1696 129.658ZM79.0537 137.757C79.2399 137.757 79.4197 137.745 79.5932 137.719C79.7667 137.69 79.9043 137.66 80.0058 137.63V138.437C79.8916 138.492 79.7223 138.536 79.498 138.57C79.278 138.608 79.0791 138.627 78.9013 138.627C77.5556 138.627 76.8828 137.918 76.8828 136.5V132.362H75.8862V131.854L76.8828 131.416L77.3271 129.931H77.9365V131.543H79.955V132.362H77.9365V136.456C77.9365 136.875 78.0359 137.197 78.2348 137.421C78.4337 137.645 78.7067 137.757 79.0537 137.757ZM88.4731 131.416C88.782 131.416 89.0592 131.441 89.3046 131.492L89.1586 132.47C88.8709 132.406 88.617 132.375 88.3969 132.375C87.8341 132.375 87.3517 132.603 86.9496 133.06C86.5519 133.517 86.353 134.086 86.353 134.768V138.5H85.2993V131.543H86.1689L86.2895 132.832H86.3403C86.5984 132.379 86.9094 132.03 87.2734 131.784C87.6373 131.539 88.0372 131.416 88.4731 131.416ZM95.1442 138.5L94.9347 137.51H94.884C94.537 137.946 94.19 138.242 93.8429 138.398C93.5002 138.551 93.0707 138.627 92.5544 138.627C91.8646 138.627 91.3229 138.449 90.9294 138.094C90.5401 137.738 90.3454 137.233 90.3454 136.577C90.3454 135.172 91.4689 134.435 93.716 134.368L94.8967 134.33V133.898C94.8967 133.352 94.7782 132.95 94.5412 132.692C94.3084 132.43 93.9339 132.298 93.4177 132.298C92.8379 132.298 92.182 132.476 91.4499 132.832L91.1262 132.025C91.4689 131.839 91.8434 131.693 92.2497 131.587C92.6602 131.482 93.0707 131.429 93.4811 131.429C94.3106 131.429 94.9242 131.613 95.322 131.981C95.724 132.349 95.925 132.939 95.925 133.752V138.5H95.1442ZM92.7638 137.757C93.4198 137.757 93.9339 137.577 94.3063 137.218C94.683 136.858 94.8713 136.354 94.8713 135.707V135.079L93.8176 135.123C92.9797 135.153 92.3745 135.284 92.0021 135.517C91.634 135.745 91.4499 136.103 91.4499 136.589C91.4499 136.97 91.5641 137.26 91.7927 137.459C92.0254 137.658 92.3491 137.757 92.7638 137.757ZM103.123 138.5V134C103.123 133.432 102.994 133.009 102.736 132.73C102.478 132.451 102.073 132.311 101.523 132.311C100.795 132.311 100.262 132.508 99.9238 132.901C99.5852 133.295 99.4159 133.944 99.4159 134.85V138.5H98.3622V131.543H99.2192L99.3905 132.495H99.4413C99.6572 132.152 99.9597 131.888 100.349 131.702C100.738 131.511 101.172 131.416 101.65 131.416C102.488 131.416 103.119 131.619 103.542 132.025C103.965 132.427 104.177 133.073 104.177 133.961V138.5H103.123ZM112.301 131.543V132.209L111.013 132.362C111.131 132.51 111.237 132.705 111.33 132.946C111.423 133.183 111.47 133.451 111.47 133.752C111.47 134.433 111.237 134.977 110.772 135.383C110.306 135.79 109.667 135.993 108.855 135.993C108.647 135.993 108.453 135.976 108.271 135.942C107.822 136.179 107.598 136.477 107.598 136.837C107.598 137.027 107.676 137.169 107.833 137.262C107.989 137.351 108.258 137.396 108.639 137.396H109.87C110.624 137.396 111.201 137.554 111.603 137.872C112.009 138.189 112.213 138.65 112.213 139.255C112.213 140.026 111.904 140.612 111.286 141.014C110.668 141.42 109.767 141.623 108.582 141.623C107.672 141.623 106.969 141.454 106.474 141.115C105.983 140.777 105.738 140.299 105.738 139.681C105.738 139.257 105.873 138.891 106.144 138.583C106.415 138.274 106.796 138.064 107.287 137.954C107.109 137.874 106.959 137.749 106.836 137.58C106.718 137.41 106.658 137.214 106.658 136.989C106.658 136.735 106.726 136.513 106.861 136.323C106.997 136.132 107.211 135.948 107.503 135.771C107.143 135.622 106.849 135.371 106.62 135.015C106.396 134.66 106.284 134.253 106.284 133.796C106.284 133.035 106.512 132.449 106.969 132.038C107.426 131.623 108.074 131.416 108.912 131.416C109.276 131.416 109.604 131.458 109.896 131.543H112.301ZM106.754 139.668C106.754 140.045 106.912 140.33 107.23 140.525C107.547 140.72 108.002 140.817 108.594 140.817C109.479 140.817 110.133 140.684 110.556 140.417C110.983 140.155 111.197 139.797 111.197 139.344C111.197 138.968 111.081 138.705 110.848 138.557C110.615 138.413 110.177 138.341 109.534 138.341H108.271C107.792 138.341 107.42 138.456 107.153 138.684C106.887 138.913 106.754 139.241 106.754 139.668ZM107.325 133.771C107.325 134.258 107.462 134.626 107.737 134.875C108.013 135.125 108.396 135.25 108.886 135.25C109.915 135.25 110.429 134.751 110.429 133.752C110.429 132.707 109.908 132.184 108.867 132.184C108.372 132.184 107.991 132.317 107.725 132.584C107.458 132.851 107.325 133.246 107.325 133.771ZM116.929 138.627C115.9 138.627 115.088 138.314 114.491 137.688C113.899 137.061 113.602 136.192 113.602 135.079C113.602 133.957 113.878 133.066 114.428 132.406C114.982 131.746 115.725 131.416 116.656 131.416C117.527 131.416 118.217 131.704 118.725 132.279C119.233 132.851 119.487 133.606 119.487 134.545V135.212H114.694C114.715 136.029 114.921 136.649 115.31 137.072C115.704 137.495 116.256 137.707 116.967 137.707C117.716 137.707 118.456 137.55 119.188 137.237V138.176C118.816 138.337 118.463 138.451 118.128 138.519C117.798 138.591 117.398 138.627 116.929 138.627ZM116.643 132.298C116.084 132.298 115.638 132.48 115.304 132.844C114.974 133.208 114.779 133.712 114.72 134.355H118.357C118.357 133.691 118.209 133.183 117.912 132.832C117.616 132.476 117.193 132.298 116.643 132.298ZM126.037 136.602C126.037 137.25 125.796 137.749 125.314 138.1C124.831 138.451 124.154 138.627 123.282 138.627C122.36 138.627 121.64 138.481 121.124 138.189V137.211C121.458 137.381 121.816 137.514 122.197 137.611C122.582 137.709 122.952 137.757 123.308 137.757C123.858 137.757 124.281 137.671 124.577 137.497C124.874 137.319 125.022 137.051 125.022 136.691C125.022 136.42 124.903 136.189 124.666 135.999C124.433 135.804 123.976 135.576 123.295 135.313C122.648 135.072 122.186 134.863 121.911 134.685C121.64 134.503 121.437 134.298 121.302 134.069C121.171 133.841 121.105 133.568 121.105 133.25C121.105 132.683 121.336 132.237 121.797 131.911C122.258 131.581 122.891 131.416 123.695 131.416C124.444 131.416 125.176 131.568 125.891 131.873L125.517 132.73C124.818 132.442 124.186 132.298 123.619 132.298C123.119 132.298 122.743 132.377 122.489 132.533C122.235 132.69 122.108 132.906 122.108 133.181C122.108 133.367 122.155 133.526 122.248 133.657C122.345 133.788 122.499 133.913 122.711 134.031C122.923 134.15 123.329 134.321 123.93 134.545C124.755 134.846 125.311 135.148 125.599 135.453C125.891 135.758 126.037 136.141 126.037 136.602ZM134.79 132.362H133.019V138.5H131.965V132.362H130.721V131.886L131.965 131.505V131.118C131.965 129.408 132.712 128.553 134.206 128.553C134.574 128.553 135.006 128.627 135.501 128.775L135.228 129.62C134.822 129.488 134.475 129.423 134.187 129.423C133.789 129.423 133.495 129.556 133.305 129.823C133.114 130.085 133.019 130.508 133.019 131.092V131.543H134.79V132.362ZM139.494 131.416C139.802 131.416 140.08 131.441 140.325 131.492L140.179 132.47C139.891 132.406 139.637 132.375 139.417 132.375C138.855 132.375 138.372 132.603 137.97 133.06C137.572 133.517 137.373 134.086 137.373 134.768V138.5H136.32V131.543H137.189L137.31 132.832H137.361C137.619 132.379 137.93 132.03 138.294 131.784C138.658 131.539 139.058 131.416 139.494 131.416ZM147.891 135.015C147.891 136.149 147.606 137.036 147.034 137.675C146.463 138.31 145.674 138.627 144.667 138.627C144.045 138.627 143.492 138.481 143.01 138.189C142.527 137.897 142.155 137.478 141.893 136.932C141.63 136.386 141.499 135.747 141.499 135.015C141.499 133.881 141.783 132.999 142.35 132.368C142.917 131.733 143.704 131.416 144.711 131.416C145.684 131.416 146.457 131.74 147.028 132.387C147.603 133.035 147.891 133.911 147.891 135.015ZM142.591 135.015C142.591 135.904 142.769 136.581 143.124 137.046C143.48 137.512 144.002 137.745 144.692 137.745C145.382 137.745 145.904 137.514 146.26 137.053C146.62 136.587 146.799 135.908 146.799 135.015C146.799 134.131 146.62 133.46 146.26 133.003C145.904 132.542 145.378 132.311 144.679 132.311C143.99 132.311 143.469 132.537 143.118 132.99C142.767 133.443 142.591 134.118 142.591 135.015ZM158.872 138.5V133.974C158.872 133.42 158.754 133.005 158.517 132.73C158.28 132.451 157.912 132.311 157.412 132.311C156.757 132.311 156.272 132.499 155.959 132.876C155.646 133.253 155.489 133.832 155.489 134.615V138.5H154.435V133.974C154.435 133.42 154.317 133.005 154.08 132.73C153.843 132.451 153.473 132.311 152.969 132.311C152.309 132.311 151.824 132.51 151.515 132.908C151.211 133.301 151.058 133.949 151.058 134.85V138.5H150.005V131.543H150.862L151.033 132.495H151.084C151.283 132.157 151.562 131.892 151.922 131.702C152.286 131.511 152.692 131.416 153.14 131.416C154.228 131.416 154.939 131.81 155.273 132.597H155.324C155.531 132.233 155.832 131.945 156.225 131.733C156.619 131.522 157.068 131.416 157.571 131.416C158.358 131.416 158.946 131.619 159.336 132.025C159.729 132.427 159.926 133.073 159.926 133.961V138.5H158.872ZM171.459 135.65C171.459 136.225 171.243 136.701 170.812 137.078C170.38 137.451 169.777 137.685 169.003 137.783V139.255H168.184V137.84C167.71 137.84 167.251 137.804 166.806 137.732C166.362 137.656 165.998 137.552 165.715 137.421V136.431C166.066 136.587 166.47 136.716 166.927 136.818C167.388 136.915 167.807 136.964 168.184 136.964V134.171C167.316 133.896 166.707 133.576 166.356 133.212C166.009 132.848 165.835 132.379 165.835 131.803C165.835 131.249 166.049 130.794 166.476 130.438C166.908 130.083 167.477 129.867 168.184 129.791V128.636H169.003V129.778C169.781 129.799 170.533 129.956 171.256 130.248L170.926 131.08C170.296 130.83 169.654 130.682 169.003 130.635V133.39C169.667 133.602 170.164 133.809 170.494 134.012C170.825 134.211 171.068 134.442 171.224 134.704C171.381 134.962 171.459 135.278 171.459 135.65ZM170.38 135.732C170.38 135.428 170.285 135.182 170.095 134.996C169.908 134.806 169.544 134.617 169.003 134.431V136.9C169.921 136.773 170.38 136.384 170.38 135.732ZM166.908 131.791C166.908 132.112 167.003 132.37 167.194 132.565C167.384 132.76 167.714 132.944 168.184 133.117V130.661C167.765 130.728 167.448 130.862 167.232 131.061C167.016 131.255 166.908 131.499 166.908 131.791ZM177.121 138.5H176.093V131.886C176.093 131.336 176.11 130.815 176.144 130.324C176.055 130.413 175.955 130.506 175.845 130.604C175.735 130.701 175.232 131.113 174.335 131.841L173.776 131.118L176.232 129.22H177.121V138.5ZM182.091 138.5L185.938 130.191H180.879V129.22H187.055V130.064L183.259 138.5H182.091ZM194.983 137.757C195.169 137.757 195.349 137.745 195.522 137.719C195.696 137.69 195.833 137.66 195.935 137.63V138.437C195.821 138.492 195.651 138.536 195.427 138.57C195.207 138.608 195.008 138.627 194.83 138.627C193.485 138.627 192.812 137.918 192.812 136.5V132.362H191.815V131.854L192.812 131.416L193.256 129.931H193.866V131.543H195.884V132.362H193.866V136.456C193.866 136.875 193.965 137.197 194.164 137.421C194.363 137.645 194.636 137.757 194.983 137.757ZM203.596 135.015C203.596 136.149 203.311 137.036 202.739 137.675C202.168 138.31 201.379 138.627 200.372 138.627C199.75 138.627 199.197 138.481 198.715 138.189C198.232 137.897 197.86 137.478 197.598 136.932C197.335 136.386 197.204 135.747 197.204 135.015C197.204 133.881 197.488 132.999 198.055 132.368C198.622 131.733 199.409 131.416 200.416 131.416C201.389 131.416 202.162 131.74 202.733 132.387C203.308 133.035 203.596 133.911 203.596 135.015ZM198.296 135.015C198.296 135.904 198.474 136.581 198.829 137.046C199.185 137.512 199.707 137.745 200.397 137.745C201.087 137.745 201.609 137.514 201.965 137.053C202.325 136.587 202.504 135.908 202.504 135.015C202.504 134.131 202.325 133.46 201.965 133.003C201.609 132.542 201.083 132.311 200.384 132.311C199.695 132.311 199.174 132.537 198.823 132.99C198.472 133.443 198.296 134.118 198.296 135.015ZM214.806 135.65C214.806 136.225 214.59 136.701 214.158 137.078C213.727 137.451 213.124 137.685 212.349 137.783V139.255H211.53V137.84C211.056 137.84 210.597 137.804 210.153 137.732C209.708 137.656 209.345 137.552 209.061 137.421V136.431C209.412 136.587 209.816 136.716 210.273 136.818C210.735 136.915 211.154 136.964 211.53 136.964V134.171C210.663 133.896 210.053 133.576 209.702 133.212C209.355 132.848 209.182 132.379 209.182 131.803C209.182 131.249 209.395 130.794 209.823 130.438C210.254 130.083 210.824 129.867 211.53 129.791V128.636H212.349V129.778C213.128 129.799 213.879 129.956 214.603 130.248L214.272 131.08C213.642 130.83 213.001 130.682 212.349 130.635V133.39C213.014 133.602 213.511 133.809 213.841 134.012C214.171 134.211 214.414 134.442 214.571 134.704C214.727 134.962 214.806 135.278 214.806 135.65ZM213.727 135.732C213.727 135.428 213.631 135.182 213.441 134.996C213.255 134.806 212.891 134.617 212.349 134.431V136.9C213.267 136.773 213.727 136.384 213.727 135.732ZM210.254 131.791C210.254 132.112 210.35 132.37 210.54 132.565C210.73 132.76 211.061 132.944 211.53 133.117V130.661C211.111 130.728 210.794 130.862 210.578 131.061C210.362 131.255 210.254 131.499 210.254 131.791ZM220.468 138.5H219.439V131.886C219.439 131.336 219.456 130.815 219.49 130.324C219.401 130.413 219.302 130.506 219.192 130.604C219.082 130.701 218.578 131.113 217.681 131.841L217.122 131.118L219.579 129.22H220.468V138.5ZM225.437 138.5L229.284 130.191H224.225V129.22H230.401V130.064L226.605 138.5H225.437ZM234.863 132.832C235.841 132.832 236.609 133.075 237.168 133.562C237.731 134.044 238.012 134.706 238.012 135.548C238.012 136.509 237.705 137.262 237.092 137.808C236.482 138.354 235.64 138.627 234.565 138.627C233.52 138.627 232.722 138.46 232.172 138.125V137.11C232.468 137.3 232.836 137.451 233.277 137.561C233.717 137.666 234.15 137.719 234.578 137.719C235.323 137.719 235.9 137.544 236.311 137.192C236.725 136.841 236.933 136.333 236.933 135.669C236.933 134.374 236.139 133.727 234.552 133.727C234.15 133.727 233.613 133.788 232.94 133.911L232.394 133.562L232.743 129.22H237.358V130.191H233.645L233.41 132.978C233.897 132.88 234.381 132.832 234.863 132.832ZM249.463 138.5L248.187 134.418C248.106 134.169 247.956 133.602 247.736 132.717H247.685C247.516 133.458 247.368 134.029 247.241 134.431L245.927 138.5H244.708L242.81 131.543H243.915C244.363 133.291 244.704 134.622 244.937 135.536C245.174 136.45 245.309 137.065 245.343 137.383H245.394C245.44 137.142 245.514 136.831 245.616 136.45C245.722 136.065 245.813 135.76 245.889 135.536L247.165 131.543H248.307L249.551 135.536C249.788 136.264 249.949 136.875 250.034 137.37H250.085C250.102 137.218 250.146 136.983 250.218 136.666C250.294 136.348 250.736 134.641 251.545 131.543H252.636L250.713 138.5H249.463ZM257.099 138.627C256.07 138.627 255.258 138.314 254.661 137.688C254.069 137.061 253.772 136.192 253.772 135.079C253.772 133.957 254.047 133.066 254.598 132.406C255.152 131.746 255.895 131.416 256.826 131.416C257.697 131.416 258.387 131.704 258.895 132.279C259.403 132.851 259.657 133.606 259.657 134.545V135.212H254.864C254.885 136.029 255.091 136.649 255.48 137.072C255.873 137.495 256.426 137.707 257.137 137.707C257.886 137.707 258.626 137.55 259.358 137.237V138.176C258.986 138.337 258.633 138.451 258.298 138.519C257.968 138.591 257.568 138.627 257.099 138.627ZM256.813 132.298C256.254 132.298 255.808 132.48 255.474 132.844C255.143 133.208 254.949 133.712 254.89 134.355H258.527C258.527 133.691 258.379 133.183 258.082 132.832C257.786 132.476 257.363 132.298 256.813 132.298ZM264.658 138.627C263.63 138.627 262.818 138.314 262.221 137.688C261.628 137.061 261.332 136.192 261.332 135.079C261.332 133.957 261.607 133.066 262.157 132.406C262.712 131.746 263.454 131.416 264.385 131.416C265.257 131.416 265.947 131.704 266.455 132.279C266.963 132.851 267.216 133.606 267.216 134.545V135.212H262.424C262.445 136.029 262.65 136.649 263.04 137.072C263.433 137.495 263.986 137.707 264.696 137.707C265.445 137.707 266.186 137.55 266.918 137.237V138.176C266.546 138.337 266.192 138.451 265.858 138.519C265.528 138.591 265.128 138.627 264.658 138.627ZM264.373 132.298C263.814 132.298 263.368 132.48 263.033 132.844C262.703 133.208 262.509 133.712 262.449 134.355H266.087C266.087 133.691 265.938 133.183 265.642 132.832C265.346 132.476 264.923 132.298 264.373 132.298ZM270.32 134.939C270.502 134.681 270.779 134.342 271.152 133.923L273.399 131.543H274.649L271.831 134.507L274.846 138.5H273.57L271.114 135.212L270.32 135.897V138.5H269.279V128.623H270.32V133.86C270.32 134.093 270.303 134.452 270.269 134.939H270.32ZM277.423 138.5H276.369V128.623H277.423V138.5ZM278.813 131.543H279.943L281.466 135.51C281.801 136.416 282.008 137.07 282.088 137.472H282.139C282.194 137.256 282.308 136.888 282.482 136.367C282.66 135.842 283.235 134.234 284.208 131.543H285.338L282.349 139.465C282.052 140.248 281.705 140.802 281.308 141.128C280.914 141.458 280.429 141.623 279.854 141.623C279.532 141.623 279.215 141.587 278.902 141.515V140.671C279.135 140.722 279.395 140.747 279.683 140.747C280.406 140.747 280.922 140.341 281.231 139.528L281.619 138.538L278.813 131.543Z" fill="#232323" fill-opacity="0.92"/>
<defs>
<filter id="filter0_d" x="0.958008" y="0" width="330" height="190" filterUnits="userSpaceOnUse" color-interpolation-filters="sRGB">
<feFlood flood-opacity="0" result="BackgroundImageFix"/>
<feColorMatrix in="SourceAlpha" type="matrix" values="0 0 0 0 0 0 0 0 0 0 0 0 0 0 0 0 0 0 127 0" result="hardAlpha"/>
<feOffset dx="-2" dy="4"/>
<feGaussianBlur stdDeviation="7.5"/>
<feColorMatrix type="matrix" values="0 0 0 0 0.748625 0 0 0 0 0.883333 0 0 0 0 0.883333 0 0 0 0.61 0"/>
<feBlend mode="normal" in2="BackgroundImageFix" result="effect1_dropShadow"/>
<feBlend mode="normal" in="SourceGraphic" in2="effect1_dropShadow" result="shape"/>
</filter>
</defs>
</svg>
