<svg width="331" height="190" viewBox="0 0 331 190" fill="none" xmlns="http://www.w3.org/2000/svg">
<g filter="url(#filter0_d)">
<rect x="17.958" y="11" width="300" height="160" rx="15" fill="white"/>
</g>
<path d="M53.6689 48.418C53.6689 49.4297 53.3226 50.209 52.6299 50.7559C51.9417 51.2982 50.9551 51.5693 49.6699 51.5693H48.4941V55.5H47.332V45.5059H49.9229C52.4202 45.5059 53.6689 46.4766 53.6689 48.418ZM48.4941 50.5713H49.54C50.57 50.5713 51.3151 50.4049 51.7754 50.0723C52.2357 49.7396 52.4658 49.2064 52.4658 48.4727C52.4658 47.8118 52.2493 47.3197 51.8164 46.9961C51.3835 46.6725 50.709 46.5107 49.793 46.5107H48.4941V50.5713ZM57.8514 55.5H56.7167V44.8633H57.8514V55.5ZM65.9851 55.5L65.7595 54.4336H65.7048C65.3311 54.903 64.9574 55.222 64.5837 55.3906C64.2146 55.5547 63.752 55.6367 63.1961 55.6367C62.4532 55.6367 61.8699 55.4453 61.4461 55.0625C61.0268 54.6797 60.8171 54.1351 60.8171 53.4287C60.8171 51.9157 62.0271 51.1227 64.447 51.0498L65.7185 51.0088V50.5439C65.7185 49.9561 65.5909 49.5231 65.3357 49.2451C65.0851 48.9626 64.6817 48.8213 64.1257 48.8213C63.5014 48.8213 62.795 49.0127 62.0066 49.3955L61.658 48.5273C62.0271 48.3268 62.4304 48.1696 62.8679 48.0557C63.31 47.9417 63.752 47.8848 64.1941 47.8848C65.0873 47.8848 65.7481 48.083 66.1765 48.4795C66.6095 48.876 66.8259 49.5117 66.8259 50.3867V55.5H65.9851ZM63.4216 54.7002C64.128 54.7002 64.6817 54.5065 65.0828 54.1191C65.4884 53.7318 65.6912 53.1895 65.6912 52.4922V51.8154L64.5564 51.8633C63.6541 51.8952 63.0024 52.0365 62.6013 52.2871C62.2048 52.5332 62.0066 52.9183 62.0066 53.4424C62.0066 53.8525 62.1296 54.1647 62.3757 54.3789C62.6264 54.5931 62.975 54.7002 63.4216 54.7002ZM72.7106 54.7002C72.9111 54.7002 73.1048 54.6865 73.2916 54.6592C73.4785 54.6273 73.6266 54.5954 73.736 54.5635V55.4316C73.6129 55.4909 73.4306 55.5387 73.1891 55.5752C72.9521 55.6162 72.7379 55.6367 72.5465 55.6367C71.0973 55.6367 70.3727 54.8734 70.3727 53.3467V48.8896H69.2995V48.3428L70.3727 47.8711L70.8512 46.2715H71.5075V48.0078H73.6813V48.8896H71.5075V53.2988C71.5075 53.75 71.6146 54.0964 71.8288 54.3379C72.0429 54.5794 72.3369 54.7002 72.7106 54.7002ZM77.4946 55.5H76.3599V48.0078H77.4946V55.5ZM76.2642 45.9775C76.2642 45.7178 76.328 45.5286 76.4556 45.4102C76.5832 45.2871 76.7427 45.2256 76.9341 45.2256C77.1164 45.2256 77.2736 45.2871 77.4058 45.4102C77.5379 45.5332 77.604 45.7223 77.604 45.9775C77.604 46.2327 77.5379 46.4242 77.4058 46.5518C77.2736 46.6748 77.1164 46.7363 76.9341 46.7363C76.7427 46.7363 76.5832 46.6748 76.4556 46.5518C76.328 46.4242 76.2642 46.2327 76.2642 45.9775ZM86.1479 55.5V50.6533C86.1479 50.0426 86.0089 49.5869 85.7309 49.2861C85.4529 48.9854 85.0176 48.835 84.4252 48.835C83.6413 48.835 83.0671 49.0469 82.7025 49.4707C82.338 49.8945 82.1557 50.5941 82.1557 51.5693V55.5H81.0209V48.0078H81.9437L82.1283 49.0332H82.183C82.4154 48.6641 82.7413 48.3792 83.1605 48.1787C83.5798 47.9736 84.0469 47.8711 84.5619 47.8711C85.4643 47.8711 86.1433 48.0898 86.599 48.5273C87.0548 48.9603 87.2826 49.6553 87.2826 50.6123V55.5H86.1479ZM91.8069 48.0078V52.8682C91.8069 53.4788 91.9459 53.9346 92.2239 54.2354C92.5019 54.5361 92.9371 54.6865 93.5296 54.6865C94.3134 54.6865 94.8854 54.4723 95.2454 54.0439C95.61 53.6156 95.7923 52.916 95.7923 51.9453V48.0078H96.927V55.5H95.9905L95.8264 54.4951H95.7649C95.5325 54.8643 95.2089 55.1468 94.7942 55.3428C94.3841 55.5387 93.9147 55.6367 93.386 55.6367C92.4746 55.6367 91.791 55.4202 91.3352 54.9873C90.8841 54.5544 90.6585 53.8617 90.6585 52.9092V48.0078H91.8069ZM110.01 55.5V50.626C110.01 50.029 109.882 49.5824 109.627 49.2861C109.372 48.9854 108.975 48.835 108.438 48.835C107.731 48.835 107.209 49.0378 106.872 49.4434C106.535 49.849 106.366 50.4733 106.366 51.3164V55.5H105.232V50.626C105.232 50.029 105.104 49.5824 104.849 49.2861C104.594 48.9854 104.195 48.835 103.653 48.835C102.942 48.835 102.42 49.0492 102.087 49.4775C101.759 49.9014 101.595 50.5986 101.595 51.5693V55.5H100.46V48.0078H101.383L101.568 49.0332H101.622C101.836 48.6686 102.137 48.3838 102.525 48.1787C102.916 47.9736 103.354 47.8711 103.837 47.8711C105.008 47.8711 105.774 48.2949 106.134 49.1426H106.189C106.412 48.7507 106.736 48.4408 107.159 48.2129C107.583 47.985 108.066 47.8711 108.609 47.8711C109.456 47.8711 110.09 48.0898 110.509 48.5273C110.933 48.9603 111.145 49.6553 111.145 50.6123V55.5H110.01ZM118.737 52.2666V51.2275H122.094V52.2666H118.737ZM132.544 45.3623C133.455 45.3623 134.177 45.5742 134.711 45.998C135.244 46.4219 135.51 47.0075 135.51 47.7549C135.51 48.2471 135.358 48.696 135.052 49.1016C134.747 49.5072 134.259 49.8763 133.59 50.209C134.401 50.5964 134.977 51.0042 135.319 51.4326C135.661 51.8564 135.832 52.3486 135.832 52.9092C135.832 53.7386 135.542 54.4017 134.964 54.8984C134.385 55.3906 133.592 55.6367 132.585 55.6367C131.518 55.6367 130.698 55.4043 130.124 54.9395C129.549 54.4701 129.262 53.807 129.262 52.9502C129.262 51.8063 129.96 50.9154 131.354 50.2773C130.725 49.9219 130.274 49.5391 130.001 49.1289C129.727 48.7142 129.591 48.2516 129.591 47.7412C129.591 47.0166 129.857 46.4401 130.39 46.0117C130.928 45.5788 131.646 45.3623 132.544 45.3623ZM130.383 52.9775C130.383 53.5244 130.573 53.9505 130.951 54.2559C131.334 54.5612 131.869 54.7139 132.557 54.7139C133.236 54.7139 133.765 54.5544 134.143 54.2354C134.521 53.9163 134.711 53.4788 134.711 52.9229C134.711 52.4808 134.533 52.0889 134.177 51.7471C133.822 51.4007 133.202 51.0658 132.318 50.7422C131.639 51.0339 131.147 51.3574 130.841 51.7129C130.536 52.0638 130.383 52.4854 130.383 52.9775ZM132.53 46.2852C131.96 46.2852 131.514 46.4219 131.19 46.6953C130.867 46.9688 130.705 47.3333 130.705 47.7891C130.705 48.2083 130.839 48.5684 131.108 48.8691C131.377 49.1699 131.874 49.4707 132.598 49.7715C133.25 49.498 133.71 49.2041 133.979 48.8896C134.253 48.5752 134.389 48.2083 134.389 47.7891C134.389 47.3288 134.223 46.9642 133.89 46.6953C133.562 46.4219 133.109 46.2852 132.53 46.2852ZM144.991 50.4893C144.991 52.2165 144.717 53.5062 144.17 54.3584C143.628 55.2106 142.796 55.6367 141.675 55.6367C140.6 55.6367 139.782 55.2015 139.221 54.3311C138.661 53.4561 138.38 52.1755 138.38 50.4893C138.38 48.7484 138.652 47.4564 139.194 46.6133C139.736 45.7702 140.563 45.3486 141.675 45.3486C142.76 45.3486 143.583 45.7884 144.143 46.668C144.708 47.5475 144.991 48.8213 144.991 50.4893ZM139.529 50.4893C139.529 51.943 139.7 53.0026 140.042 53.668C140.383 54.3288 140.928 54.6592 141.675 54.6592C142.432 54.6592 142.979 54.3242 143.316 53.6543C143.658 52.9798 143.829 51.9248 143.829 50.4893C143.829 49.0537 143.658 48.0033 143.316 47.3379C142.979 46.668 142.432 46.333 141.675 46.333C140.928 46.333 140.383 46.6634 140.042 47.3242C139.7 47.9805 139.529 49.0355 139.529 50.4893ZM148.469 48.4863C148.469 49.2611 148.553 49.8421 148.722 50.2295C148.891 50.6169 149.164 50.8105 149.542 50.8105C150.29 50.8105 150.664 50.0358 150.664 48.4863C150.664 46.946 150.29 46.1758 149.542 46.1758C149.164 46.1758 148.891 46.3672 148.722 46.75C148.553 47.1328 148.469 47.7116 148.469 48.4863ZM151.6 48.4863C151.6 49.5254 151.425 50.3115 151.074 50.8447C150.727 51.3734 150.217 51.6377 149.542 51.6377C148.904 51.6377 148.408 51.3665 148.052 50.8242C147.701 50.2819 147.526 49.5026 147.526 48.4863C147.526 47.4518 147.694 46.6725 148.032 46.1484C148.373 45.6243 148.877 45.3623 149.542 45.3623C150.203 45.3623 150.711 45.6335 151.067 46.1758C151.422 46.7181 151.6 47.4883 151.6 48.4863ZM154.485 52.4922C154.485 53.2715 154.569 53.8548 154.738 54.2422C154.906 54.625 155.182 54.8164 155.565 54.8164C155.948 54.8164 156.23 54.6273 156.413 54.249C156.595 53.8662 156.686 53.2806 156.686 52.4922C156.686 51.7129 156.595 51.1364 156.413 50.7627C156.23 50.3844 155.948 50.1953 155.565 50.1953C155.182 50.1953 154.906 50.3844 154.738 50.7627C154.569 51.1364 154.485 51.7129 154.485 52.4922ZM157.622 52.4922C157.622 53.5267 157.447 54.3105 157.096 54.8438C156.75 55.3724 156.239 55.6367 155.565 55.6367C154.918 55.6367 154.419 55.3656 154.068 54.8232C153.721 54.2809 153.548 53.5039 153.548 52.4922C153.548 51.4577 153.717 50.6784 154.054 50.1543C154.396 49.6302 154.9 49.3682 155.565 49.3682C156.212 49.3682 156.716 49.637 157.076 50.1748C157.44 50.708 157.622 51.4805 157.622 52.4922ZM155.859 45.5059L150.315 55.5H149.31L154.854 45.5059H155.859ZM166.753 51.3438V55.5H165.591V45.5059H168.332C169.558 45.5059 170.463 45.7406 171.046 46.21C171.634 46.6794 171.928 47.3857 171.928 48.3291C171.928 49.6507 171.258 50.5439 169.918 51.0088L172.632 55.5H171.258L168.838 51.3438H166.753ZM166.753 50.3457H168.346C169.166 50.3457 169.768 50.1839 170.151 49.8604C170.533 49.5322 170.725 49.0423 170.725 48.3906C170.725 47.7298 170.529 47.2536 170.137 46.9619C169.75 46.6702 169.125 46.5244 168.264 46.5244H166.753V50.3457ZM184.04 50.4893C184.04 52.0889 183.635 53.3467 182.823 54.2627C182.017 55.1787 180.893 55.6367 179.453 55.6367C177.981 55.6367 176.844 55.1878 176.042 54.29C175.245 53.3877 174.846 52.1162 174.846 50.4756C174.846 48.8486 175.247 47.5885 176.049 46.6953C176.851 45.7975 177.99 45.3486 179.467 45.3486C180.902 45.3486 182.024 45.8044 182.83 46.7158C183.637 47.6273 184.04 48.8851 184.04 50.4893ZM176.076 50.4893C176.076 51.8428 176.363 52.8704 176.938 53.5723C177.516 54.2695 178.355 54.6182 179.453 54.6182C180.561 54.6182 181.397 54.2695 181.962 53.5723C182.527 52.875 182.81 51.8473 182.81 50.4893C182.81 49.1449 182.527 48.1263 181.962 47.4336C181.401 46.7363 180.57 46.3877 179.467 46.3877C178.359 46.3877 177.516 46.7386 176.938 47.4404C176.363 48.1377 176.076 49.154 176.076 50.4893ZM187.395 55.5V45.5059H188.558V55.5H187.395Z" fill="#232323" fill-opacity="0.92"/>
<path d="M61.9541 96.8057C61.9541 98.3584 61.3926 99.6084 60.2695 100.556C59.1465 101.493 57.5742 102.055 55.5527 102.24V105.243H53.5459V102.299C51.1631 102.25 49.0732 101.83 47.2764 101.039V97.1719C48.126 97.5918 49.1465 97.9629 50.3379 98.2852C51.5391 98.6074 52.6084 98.7979 53.5459 98.8564V94.3154L52.5645 93.9346C50.6309 93.1729 49.2588 92.3477 48.4482 91.459C47.6475 90.5605 47.2471 89.4521 47.2471 88.1338C47.2471 86.7178 47.7988 85.5557 48.9023 84.6475C50.0156 83.7295 51.5635 83.1729 53.5459 82.9775V80.7363H55.5527V82.9189C57.7891 83.0166 59.8105 83.4658 61.6172 84.2666L60.2402 87.6943C58.7168 87.0693 57.1543 86.6885 55.5527 86.5518V90.873C57.457 91.6055 58.8096 92.2402 59.6104 92.7773C60.4209 93.3145 61.0117 93.9053 61.3828 94.5498C61.7637 95.1943 61.9541 95.9463 61.9541 96.8057ZM57.5449 97.0254C57.5449 96.6152 57.3789 96.2686 57.0469 95.9854C56.7148 95.7021 56.2168 95.4092 55.5527 95.1064V98.7539C56.8809 98.5293 57.5449 97.9531 57.5449 97.0254ZM51.6562 88.1338C51.6562 88.5635 51.8027 88.9199 52.0957 89.2031C52.3984 89.4766 52.8818 89.7598 53.5459 90.0527V86.6104C52.2861 86.7959 51.6562 87.3037 51.6562 88.1338ZM72.9908 89.8184C75.0611 89.8184 76.7066 90.3994 77.9273 91.5615C79.1578 92.7236 79.773 94.3154 79.773 96.3369C79.773 98.7295 79.0357 100.57 77.5611 101.859C76.0865 103.148 73.9771 103.793 71.233 103.793C68.8502 103.793 66.9264 103.407 65.4615 102.636V98.7246C66.233 99.1348 67.1314 99.4717 68.1568 99.7354C69.1822 99.9893 70.1539 100.116 71.0719 100.116C73.8355 100.116 75.2174 98.9834 75.2174 96.7178C75.2174 94.5596 73.7867 93.4805 70.9254 93.4805C70.4078 93.4805 69.8365 93.5342 69.2115 93.6416C68.5865 93.7393 68.0787 93.8467 67.6881 93.9639L65.8863 92.9971L66.692 82.084H78.3082V85.9219H70.6617L70.2662 90.126L70.7789 90.0234C71.3746 89.8867 72.1119 89.8184 72.9908 89.8184ZM98.09 92.792C98.09 96.5322 97.4748 99.3008 96.2443 101.098C95.0236 102.895 93.1389 103.793 90.59 103.793C88.1193 103.793 86.2541 102.865 84.9943 101.01C83.7443 99.1543 83.1193 96.415 83.1193 92.792C83.1193 89.0127 83.7297 86.2295 84.9504 84.4424C86.1711 82.6455 88.051 81.7471 90.59 81.7471C93.0607 81.7471 94.926 82.6846 96.1857 84.5596C97.4553 86.4346 98.09 89.1787 98.09 92.792ZM87.6164 92.792C87.6164 95.4189 87.841 97.3037 88.2902 98.4463C88.7492 99.5791 89.5158 100.146 90.59 100.146C91.6447 100.146 92.4064 99.5693 92.8752 98.417C93.3439 97.2646 93.5783 95.3896 93.5783 92.792C93.5783 90.165 93.3391 88.2803 92.8605 87.1377C92.3918 85.9854 91.635 85.4092 90.59 85.4092C89.5256 85.4092 88.7639 85.9854 88.3049 87.1377C87.8459 88.2803 87.6164 90.165 87.6164 92.792ZM116.129 92.792C116.129 96.5322 115.513 99.3008 114.283 101.098C113.062 102.895 111.178 103.793 108.629 103.793C106.158 103.793 104.293 102.865 103.033 101.01C101.783 99.1543 101.158 96.415 101.158 92.792C101.158 89.0127 101.768 86.2295 102.989 84.4424C104.21 82.6455 106.09 81.7471 108.629 81.7471C111.099 81.7471 112.965 82.6846 114.224 84.5596C115.494 86.4346 116.129 89.1787 116.129 92.792ZM105.655 92.792C105.655 95.4189 105.88 97.3037 106.329 98.4463C106.788 99.5791 107.554 100.146 108.629 100.146C109.683 100.146 110.445 99.5693 110.914 98.417C111.383 97.2646 111.617 95.3896 111.617 92.792C111.617 90.165 111.378 88.2803 110.899 87.1377C110.43 85.9854 109.674 85.4092 108.629 85.4092C107.564 85.4092 106.803 85.9854 106.344 87.1377C105.885 88.2803 105.655 90.165 105.655 92.792ZM138.035 103.5H132.878L127.268 94.4766L125.349 95.8535V103.5H120.808V82.084H125.349V91.8838L127.136 89.3643L132.937 82.084H137.976L130.505 91.5615L138.035 103.5ZM160.372 103.5L159.507 101.273H159.39C158.638 102.221 157.862 102.88 157.061 103.251C156.27 103.612 155.235 103.793 153.956 103.793C152.383 103.793 151.143 103.344 150.235 102.445C149.337 101.547 148.887 100.268 148.887 98.6074C148.887 96.8691 149.493 95.5898 150.704 94.7695C151.924 93.9395 153.76 93.4805 156.212 93.3926L159.053 93.3047V92.5869C159.053 90.9268 158.204 90.0967 156.504 90.0967C155.196 90.0967 153.658 90.4922 151.89 91.2832L150.411 88.2656C152.296 87.2793 154.385 86.7861 156.68 86.7861C158.878 86.7861 160.562 87.2646 161.734 88.2217C162.906 89.1787 163.492 90.6338 163.492 92.5869V103.5H160.372ZM159.053 95.9121L157.325 95.9707C156.026 96.0098 155.059 96.2441 154.424 96.6738C153.79 97.1035 153.472 97.7578 153.472 98.6367C153.472 99.8965 154.195 100.526 155.64 100.526C156.675 100.526 157.501 100.229 158.116 99.6328C158.741 99.0371 159.053 98.2461 159.053 97.2598V95.9121ZM178.117 86.8154C180.051 86.8154 181.565 87.5723 182.658 89.0859C183.752 90.5898 184.299 92.6553 184.299 95.2822C184.299 97.9873 183.733 100.082 182.6 101.566C181.477 103.051 179.944 103.793 178 103.793C176.076 103.793 174.568 103.095 173.474 101.698H173.166L172.419 103.5H169.006V80.707H173.474V86.0098C173.474 86.6836 173.415 87.7627 173.298 89.2471H173.474C174.519 87.626 176.067 86.8154 178.117 86.8154ZM176.682 90.3896C175.578 90.3896 174.773 90.7314 174.265 91.415C173.757 92.0889 173.493 93.207 173.474 94.7695V95.2529C173.474 97.0107 173.733 98.2705 174.25 99.0322C174.778 99.7939 175.608 100.175 176.74 100.175C177.658 100.175 178.386 99.7549 178.923 98.915C179.47 98.0654 179.743 96.835 179.743 95.2236C179.743 93.6123 179.47 92.4062 178.923 91.6055C178.376 90.7949 177.629 90.3896 176.682 90.3896ZM192.45 95.2822C192.45 96.9033 192.714 98.1289 193.241 98.959C193.778 99.7891 194.647 100.204 195.848 100.204C197.04 100.204 197.894 99.7939 198.412 98.9736C198.939 98.1436 199.203 96.9131 199.203 95.2822C199.203 93.6611 198.939 92.4453 198.412 91.6348C197.885 90.8242 197.02 90.4189 195.819 90.4189C194.628 90.4189 193.768 90.8242 193.241 91.6348C192.714 92.4355 192.45 93.6514 192.45 95.2822ZM203.773 95.2822C203.773 97.9482 203.07 100.033 201.664 101.537C200.258 103.041 198.3 103.793 195.79 103.793C194.218 103.793 192.831 103.451 191.63 102.768C190.429 102.074 189.506 101.083 188.861 99.7939C188.217 98.5049 187.894 97.001 187.894 95.2822C187.894 92.6064 188.593 90.5264 189.989 89.042C191.386 87.5576 193.348 86.8154 195.878 86.8154C197.45 86.8154 198.837 87.1572 200.038 87.8408C201.239 88.5244 202.162 89.5059 202.806 90.7852C203.451 92.0645 203.773 93.5635 203.773 95.2822ZM212.261 103.5L206.021 87.123H210.694L213.858 96.4541C214.209 97.6357 214.429 98.7539 214.517 99.8086H214.605C214.654 98.8711 214.873 97.7529 215.264 96.4541L218.413 87.123H223.086L216.846 103.5H212.261ZM233.127 89.9941C232.18 89.9941 231.438 90.2969 230.9 90.9023C230.363 91.498 230.056 92.3477 229.978 93.4512H236.247C236.228 92.3477 235.939 91.498 235.383 90.9023C234.826 90.2969 234.074 89.9941 233.127 89.9941ZM233.757 103.793C231.12 103.793 229.06 103.065 227.575 101.61C226.091 100.155 225.349 98.0947 225.349 95.4287C225.349 92.6846 226.032 90.5654 227.399 89.0713C228.776 87.5674 230.676 86.8154 233.098 86.8154C235.412 86.8154 237.214 87.4746 238.503 88.793C239.792 90.1113 240.437 91.9326 240.437 94.2568V96.4248H229.875C229.924 97.6943 230.3 98.6855 231.003 99.3984C231.706 100.111 232.692 100.468 233.962 100.468C234.948 100.468 235.881 100.365 236.76 100.16C237.639 99.9551 238.557 99.6279 239.514 99.1787V102.636C238.732 103.026 237.897 103.314 237.009 103.5C236.12 103.695 235.036 103.793 233.757 103.793Z" fill="#EF0374" fill-opacity="0.8"/>
<path d="M53.1182 131.924C53.1182 132.863 52.7965 133.587 52.1533 134.095C51.5143 134.598 50.5981 134.85 49.4048 134.85H48.313V138.5H47.2339V129.22H49.6396C51.9587 129.22 53.1182 130.121 53.1182 131.924ZM48.313 133.923H49.2842C50.2406 133.923 50.9325 133.769 51.3599 133.46C51.7873 133.151 52.001 132.656 52.001 131.975C52.001 131.361 51.8 130.904 51.3979 130.604C50.9959 130.303 50.3696 130.153 49.519 130.153H48.313V133.923ZM58.342 131.416C58.651 131.416 58.9281 131.441 59.1736 131.492L59.0276 132.47C58.7398 132.406 58.4859 132.375 58.2659 132.375C57.703 132.375 57.2206 132.603 56.8186 133.06C56.4208 133.517 56.2219 134.086 56.2219 134.768V138.5H55.1682V131.543H56.0378L56.1584 132.832H56.2092C56.4674 132.379 56.7784 132.03 57.1423 131.784C57.5063 131.539 57.9062 131.416 58.342 131.416ZM66.7397 135.015C66.7397 136.149 66.4541 137.036 65.8828 137.675C65.3115 138.31 64.5223 138.627 63.5151 138.627C62.893 138.627 62.3408 138.481 61.8584 138.189C61.376 137.897 61.0036 137.478 60.7412 136.932C60.4788 136.386 60.3476 135.747 60.3476 135.015C60.3476 133.881 60.6312 132.999 61.1982 132.368C61.7653 131.733 62.5524 131.416 63.5596 131.416C64.5329 131.416 65.3052 131.74 65.8764 132.387C66.452 133.035 66.7397 133.911 66.7397 135.015ZM61.4394 135.015C61.4394 135.904 61.6172 136.581 61.9726 137.046C62.3281 137.512 62.8507 137.745 63.5405 137.745C64.2303 137.745 64.7529 137.514 65.1084 137.053C65.4681 136.587 65.6479 135.908 65.6479 135.015C65.6479 134.131 65.4681 133.46 65.1084 133.003C64.7529 132.542 64.2261 132.311 63.5278 132.311C62.838 132.311 62.3175 132.537 61.9663 132.99C61.6151 133.443 61.4394 134.118 61.4394 135.015ZM71.989 132.362H70.218V138.5H69.1643V132.362H67.9201V131.886L69.1643 131.505V131.118C69.1643 129.408 69.9112 128.553 71.405 128.553C71.7732 128.553 72.2048 128.627 72.6999 128.775L72.427 129.62C72.0207 129.488 71.6737 129.423 71.386 129.423C70.9882 129.423 70.6941 129.556 70.5036 129.823C70.3132 130.085 70.218 130.508 70.218 131.092V131.543H71.989V132.362ZM74.3122 138.5H73.2585V131.543H74.3122V138.5ZM73.1696 129.658C73.1696 129.417 73.2289 129.241 73.3474 129.131C73.4659 129.017 73.614 128.959 73.7917 128.959C73.961 128.959 74.107 129.017 74.2297 129.131C74.3524 129.245 74.4138 129.421 74.4138 129.658C74.4138 129.895 74.3524 130.072 74.2297 130.191C74.107 130.305 73.961 130.362 73.7917 130.362C73.614 130.362 73.4659 130.305 73.3474 130.191C73.2289 130.072 73.1696 129.895 73.1696 129.658ZM79.0537 137.757C79.2399 137.757 79.4197 137.745 79.5932 137.719C79.7667 137.69 79.9043 137.66 80.0058 137.63V138.437C79.8916 138.492 79.7223 138.536 79.498 138.57C79.278 138.608 79.0791 138.627 78.9013 138.627C77.5556 138.627 76.8828 137.918 76.8828 136.5V132.362H75.8862V131.854L76.8828 131.416L77.3271 129.931H77.9365V131.543H79.955V132.362H77.9365V136.456C77.9365 136.875 78.0359 137.197 78.2348 137.421C78.4337 137.645 78.7067 137.757 79.0537 137.757ZM88.4731 131.416C88.782 131.416 89.0592 131.441 89.3046 131.492L89.1586 132.47C88.8709 132.406 88.617 132.375 88.3969 132.375C87.8341 132.375 87.3517 132.603 86.9496 133.06C86.5519 133.517 86.353 134.086 86.353 134.768V138.5H85.2993V131.543H86.1689L86.2895 132.832H86.3403C86.5984 132.379 86.9094 132.03 87.2734 131.784C87.6373 131.539 88.0372 131.416 88.4731 131.416ZM95.1442 138.5L94.9347 137.51H94.884C94.537 137.946 94.19 138.242 93.8429 138.398C93.5002 138.551 93.0707 138.627 92.5544 138.627C91.8646 138.627 91.3229 138.449 90.9294 138.094C90.5401 137.738 90.3454 137.233 90.3454 136.577C90.3454 135.172 91.4689 134.435 93.716 134.368L94.8967 134.33V133.898C94.8967 133.352 94.7782 132.95 94.5412 132.692C94.3084 132.43 93.9339 132.298 93.4177 132.298C92.8379 132.298 92.182 132.476 91.4499 132.832L91.1262 132.025C91.4689 131.839 91.8434 131.693 92.2497 131.587C92.6602 131.482 93.0707 131.429 93.4811 131.429C94.3106 131.429 94.9242 131.613 95.322 131.981C95.724 132.349 95.925 132.939 95.925 133.752V138.5H95.1442ZM92.7638 137.757C93.4198 137.757 93.9339 137.577 94.3063 137.218C94.683 136.858 94.8713 136.354 94.8713 135.707V135.079L93.8176 135.123C92.9797 135.153 92.3745 135.284 92.0021 135.517C91.634 135.745 91.4499 136.103 91.4499 136.589C91.4499 136.97 91.5641 137.26 91.7927 137.459C92.0254 137.658 92.3491 137.757 92.7638 137.757ZM103.123 138.5V134C103.123 133.432 102.994 133.009 102.736 132.73C102.478 132.451 102.073 132.311 101.523 132.311C100.795 132.311 100.262 132.508 99.9238 132.901C99.5852 133.295 99.4159 133.944 99.4159 134.85V138.5H98.3622V131.543H99.2192L99.3905 132.495H99.4413C99.6572 132.152 99.9597 131.888 100.349 131.702C100.738 131.511 101.172 131.416 101.65 131.416C102.488 131.416 103.119 131.619 103.542 132.025C103.965 132.427 104.177 133.073 104.177 133.961V138.5H103.123ZM112.301 131.543V132.209L111.013 132.362C111.131 132.51 111.237 132.705 111.33 132.946C111.423 133.183 111.47 133.451 111.47 133.752C111.47 134.433 111.237 134.977 110.772 135.383C110.306 135.79 109.667 135.993 108.855 135.993C108.647 135.993 108.453 135.976 108.271 135.942C107.822 136.179 107.598 136.477 107.598 136.837C107.598 137.027 107.676 137.169 107.833 137.262C107.989 137.351 108.258 137.396 108.639 137.396H109.87C110.624 137.396 111.201 137.554 111.603 137.872C112.009 138.189 112.213 138.65 112.213 139.255C112.213 140.026 111.904 140.612 111.286 141.014C110.668 141.42 109.767 141.623 108.582 141.623C107.672 141.623 106.969 141.454 106.474 141.115C105.983 140.777 105.738 140.299 105.738 139.681C105.738 139.257 105.873 138.891 106.144 138.583C106.415 138.274 106.796 138.064 107.287 137.954C107.109 137.874 106.959 137.749 106.836 137.58C106.718 137.41 106.658 137.214 106.658 136.989C106.658 136.735 106.726 136.513 106.861 136.323C106.997 136.132 107.211 135.948 107.503 135.771C107.143 135.622 106.849 135.371 106.62 135.015C106.396 134.66 106.284 134.253 106.284 133.796C106.284 133.035 106.512 132.449 106.969 132.038C107.426 131.623 108.074 131.416 108.912 131.416C109.276 131.416 109.604 131.458 109.896 131.543H112.301ZM106.754 139.668C106.754 140.045 106.912 140.33 107.23 140.525C107.547 140.72 108.002 140.817 108.594 140.817C109.479 140.817 110.133 140.684 110.556 140.417C110.983 140.155 111.197 139.797 111.197 139.344C111.197 138.968 111.081 138.705 110.848 138.557C110.615 138.413 110.177 138.341 109.534 138.341H108.271C107.792 138.341 107.42 138.456 107.153 138.684C106.887 138.913 106.754 139.241 106.754 139.668ZM107.325 133.771C107.325 134.258 107.462 134.626 107.737 134.875C108.013 135.125 108.396 135.25 108.886 135.25C109.915 135.25 110.429 134.751 110.429 133.752C110.429 132.707 109.908 132.184 108.867 132.184C108.372 132.184 107.991 132.317 107.725 132.584C107.458 132.851 107.325 133.246 107.325 133.771ZM116.929 138.627C115.9 138.627 115.088 138.314 114.491 137.688C113.899 137.061 113.602 136.192 113.602 135.079C113.602 133.957 113.878 133.066 114.428 132.406C114.982 131.746 115.725 131.416 116.656 131.416C117.527 131.416 118.217 131.704 118.725 132.279C119.233 132.851 119.487 133.606 119.487 134.545V135.212H114.694C114.715 136.029 114.921 136.649 115.31 137.072C115.704 137.495 116.256 137.707 116.967 137.707C117.716 137.707 118.456 137.55 119.188 137.237V138.176C118.816 138.337 118.463 138.451 118.128 138.519C117.798 138.591 117.398 138.627 116.929 138.627ZM116.643 132.298C116.084 132.298 115.638 132.48 115.304 132.844C114.974 133.208 114.779 133.712 114.72 134.355H118.357C118.357 133.691 118.209 133.183 117.912 132.832C117.616 132.476 117.193 132.298 116.643 132.298ZM126.037 136.602C126.037 137.25 125.796 137.749 125.314 138.1C124.831 138.451 124.154 138.627 123.282 138.627C122.36 138.627 121.64 138.481 121.124 138.189V137.211C121.458 137.381 121.816 137.514 122.197 137.611C122.582 137.709 122.952 137.757 123.308 137.757C123.858 137.757 124.281 137.671 124.577 137.497C124.874 137.319 125.022 137.051 125.022 136.691C125.022 136.42 124.903 136.189 124.666 135.999C124.433 135.804 123.976 135.576 123.295 135.313C122.648 135.072 122.186 134.863 121.911 134.685C121.64 134.503 121.437 134.298 121.302 134.069C121.171 133.841 121.105 133.568 121.105 133.25C121.105 132.683 121.336 132.237 121.797 131.911C122.258 131.581 122.891 131.416 123.695 131.416C124.444 131.416 125.176 131.568 125.891 131.873L125.517 132.73C124.818 132.442 124.186 132.298 123.619 132.298C123.119 132.298 122.743 132.377 122.489 132.533C122.235 132.69 122.108 132.906 122.108 133.181C122.108 133.367 122.155 133.526 122.248 133.657C122.345 133.788 122.499 133.913 122.711 134.031C122.923 134.15 123.329 134.321 123.93 134.545C124.755 134.846 125.311 135.148 125.599 135.453C125.891 135.758 126.037 136.141 126.037 136.602ZM134.79 132.362H133.019V138.5H131.965V132.362H130.721V131.886L131.965 131.505V131.118C131.965 129.408 132.712 128.553 134.206 128.553C134.574 128.553 135.006 128.627 135.501 128.775L135.228 129.62C134.822 129.488 134.475 129.423 134.187 129.423C133.789 129.423 133.495 129.556 133.305 129.823C133.114 130.085 133.019 130.508 133.019 131.092V131.543H134.79V132.362ZM139.494 131.416C139.802 131.416 140.08 131.441 140.325 131.492L140.179 132.47C139.891 132.406 139.637 132.375 139.417 132.375C138.855 132.375 138.372 132.603 137.97 133.06C137.572 133.517 137.373 134.086 137.373 134.768V138.5H136.32V131.543H137.189L137.31 132.832H137.361C137.619 132.379 137.93 132.03 138.294 131.784C138.658 131.539 139.058 131.416 139.494 131.416ZM147.891 135.015C147.891 136.149 147.606 137.036 147.034 137.675C146.463 138.31 145.674 138.627 144.667 138.627C144.045 138.627 143.492 138.481 143.01 138.189C142.527 137.897 142.155 137.478 141.893 136.932C141.63 136.386 141.499 135.747 141.499 135.015C141.499 133.881 141.783 132.999 142.35 132.368C142.917 131.733 143.704 131.416 144.711 131.416C145.684 131.416 146.457 131.74 147.028 132.387C147.603 133.035 147.891 133.911 147.891 135.015ZM142.591 135.015C142.591 135.904 142.769 136.581 143.124 137.046C143.48 137.512 144.002 137.745 144.692 137.745C145.382 137.745 145.904 137.514 146.26 137.053C146.62 136.587 146.799 135.908 146.799 135.015C146.799 134.131 146.62 133.46 146.26 133.003C145.904 132.542 145.378 132.311 144.679 132.311C143.99 132.311 143.469 132.537 143.118 132.99C142.767 133.443 142.591 134.118 142.591 135.015ZM158.872 138.5V133.974C158.872 133.42 158.754 133.005 158.517 132.73C158.28 132.451 157.912 132.311 157.412 132.311C156.757 132.311 156.272 132.499 155.959 132.876C155.646 133.253 155.489 133.832 155.489 134.615V138.5H154.435V133.974C154.435 133.42 154.317 133.005 154.08 132.73C153.843 132.451 153.473 132.311 152.969 132.311C152.309 132.311 151.824 132.51 151.515 132.908C151.211 133.301 151.058 133.949 151.058 134.85V138.5H150.005V131.543H150.862L151.033 132.495H151.084C151.283 132.157 151.562 131.892 151.922 131.702C152.286 131.511 152.692 131.416 153.14 131.416C154.228 131.416 154.939 131.81 155.273 132.597H155.324C155.531 132.233 155.832 131.945 156.225 131.733C156.619 131.522 157.068 131.416 157.571 131.416C158.358 131.416 158.946 131.619 159.336 132.025C159.729 132.427 159.926 133.073 159.926 133.961V138.5H158.872ZM171.459 135.65C171.459 136.225 171.243 136.701 170.812 137.078C170.38 137.451 169.777 137.685 169.003 137.783V139.255H168.184V137.84C167.71 137.84 167.251 137.804 166.806 137.732C166.362 137.656 165.998 137.552 165.715 137.421V136.431C166.066 136.587 166.47 136.716 166.927 136.818C167.388 136.915 167.807 136.964 168.184 136.964V134.171C167.316 133.896 166.707 133.576 166.356 133.212C166.009 132.848 165.835 132.379 165.835 131.803C165.835 131.249 166.049 130.794 166.476 130.438C166.908 130.083 167.477 129.867 168.184 129.791V128.636H169.003V129.778C169.781 129.799 170.533 129.956 171.256 130.248L170.926 131.08C170.296 130.83 169.654 130.682 169.003 130.635V133.39C169.667 133.602 170.164 133.809 170.494 134.012C170.825 134.211 171.068 134.442 171.224 134.704C171.381 134.962 171.459 135.278 171.459 135.65ZM170.38 135.732C170.38 135.428 170.285 135.182 170.095 134.996C169.908 134.806 169.544 134.617 169.003 134.431V136.9C169.921 136.773 170.38 136.384 170.38 135.732ZM166.908 131.791C166.908 132.112 167.003 132.37 167.194 132.565C167.384 132.76 167.714 132.944 168.184 133.117V130.661C167.765 130.728 167.448 130.862 167.232 131.061C167.016 131.255 166.908 131.499 166.908 131.791ZM177.121 138.5H176.093V131.886C176.093 131.336 176.11 130.815 176.144 130.324C176.055 130.413 175.955 130.506 175.845 130.604C175.735 130.701 175.232 131.113 174.335 131.841L173.776 131.118L176.232 129.22H177.121V138.5ZM182.091 138.5L185.938 130.191H180.879V129.22H187.055V130.064L183.259 138.5H182.091ZM194.983 137.757C195.169 137.757 195.349 137.745 195.522 137.719C195.696 137.69 195.833 137.66 195.935 137.63V138.437C195.821 138.492 195.651 138.536 195.427 138.57C195.207 138.608 195.008 138.627 194.83 138.627C193.485 138.627 192.812 137.918 192.812 136.5V132.362H191.815V131.854L192.812 131.416L193.256 129.931H193.866V131.543H195.884V132.362H193.866V136.456C193.866 136.875 193.965 137.197 194.164 137.421C194.363 137.645 194.636 137.757 194.983 137.757ZM203.596 135.015C203.596 136.149 203.311 137.036 202.739 137.675C202.168 138.31 201.379 138.627 200.372 138.627C199.75 138.627 199.197 138.481 198.715 138.189C198.232 137.897 197.86 137.478 197.598 136.932C197.335 136.386 197.204 135.747 197.204 135.015C197.204 133.881 197.488 132.999 198.055 132.368C198.622 131.733 199.409 131.416 200.416 131.416C201.389 131.416 202.162 131.74 202.733 132.387C203.308 133.035 203.596 133.911 203.596 135.015ZM198.296 135.015C198.296 135.904 198.474 136.581 198.829 137.046C199.185 137.512 199.707 137.745 200.397 137.745C201.087 137.745 201.609 137.514 201.965 137.053C202.325 136.587 202.504 135.908 202.504 135.015C202.504 134.131 202.325 133.46 201.965 133.003C201.609 132.542 201.083 132.311 200.384 132.311C199.695 132.311 199.174 132.537 198.823 132.99C198.472 133.443 198.296 134.118 198.296 135.015ZM214.806 135.65C214.806 136.225 214.59 136.701 214.158 137.078C213.727 137.451 213.124 137.685 212.349 137.783V139.255H211.53V137.84C211.056 137.84 210.597 137.804 210.153 137.732C209.708 137.656 209.345 137.552 209.061 137.421V136.431C209.412 136.587 209.816 136.716 210.273 136.818C210.735 136.915 211.154 136.964 211.53 136.964V134.171C210.663 133.896 210.053 133.576 209.702 133.212C209.355 132.848 209.182 132.379 209.182 131.803C209.182 131.249 209.395 130.794 209.823 130.438C210.254 130.083 210.824 129.867 211.53 129.791V128.636H212.349V129.778C213.128 129.799 213.879 129.956 214.603 130.248L214.272 131.08C213.642 130.83 213.001 130.682 212.349 130.635V133.39C213.014 133.602 213.511 133.809 213.841 134.012C214.171 134.211 214.414 134.442 214.571 134.704C214.727 134.962 214.806 135.278 214.806 135.65ZM213.727 135.732C213.727 135.428 213.631 135.182 213.441 134.996C213.255 134.806 212.891 134.617 212.349 134.431V136.9C213.267 136.773 213.727 136.384 213.727 135.732ZM210.254 131.791C210.254 132.112 210.35 132.37 210.54 132.565C210.73 132.76 211.061 132.944 211.53 133.117V130.661C211.111 130.728 210.794 130.862 210.578 131.061C210.362 131.255 210.254 131.499 210.254 131.791ZM220.468 138.5H219.439V131.886C219.439 131.336 219.456 130.815 219.49 130.324C219.401 130.413 219.302 130.506 219.192 130.604C219.082 130.701 218.578 131.113 217.681 131.841L217.122 131.118L219.579 129.22H220.468V138.5ZM225.437 138.5L229.284 130.191H224.225V129.22H230.401V130.064L226.605 138.5H225.437ZM234.863 132.832C235.841 132.832 236.609 133.075 237.168 133.562C237.731 134.044 238.012 134.706 238.012 135.548C238.012 136.509 237.705 137.262 237.092 137.808C236.482 138.354 235.64 138.627 234.565 138.627C233.52 138.627 232.722 138.46 232.172 138.125V137.11C232.468 137.3 232.836 137.451 233.277 137.561C233.717 137.666 234.15 137.719 234.578 137.719C235.323 137.719 235.9 137.544 236.311 137.192C236.725 136.841 236.933 136.333 236.933 135.669C236.933 134.374 236.139 133.727 234.552 133.727C234.15 133.727 233.613 133.788 232.94 133.911L232.394 133.562L232.743 129.22H237.358V130.191H233.645L233.41 132.978C233.897 132.88 234.381 132.832 234.863 132.832ZM249.463 138.5L248.187 134.418C248.106 134.169 247.956 133.602 247.736 132.717H247.685C247.516 133.458 247.368 134.029 247.241 134.431L245.927 138.5H244.708L242.81 131.543H243.915C244.363 133.291 244.704 134.622 244.937 135.536C245.174 136.45 245.309 137.065 245.343 137.383H245.394C245.44 137.142 245.514 136.831 245.616 136.45C245.722 136.065 245.813 135.76 245.889 135.536L247.165 131.543H248.307L249.551 135.536C249.788 136.264 249.949 136.875 250.034 137.37H250.085C250.102 137.218 250.146 136.983 250.218 136.666C250.294 136.348 250.736 134.641 251.545 131.543H252.636L250.713 138.5H249.463ZM257.099 138.627C256.07 138.627 255.258 138.314 254.661 137.688C254.069 137.061 253.772 136.192 253.772 135.079C253.772 133.957 254.047 133.066 254.598 132.406C255.152 131.746 255.895 131.416 256.826 131.416C257.697 131.416 258.387 131.704 258.895 132.279C259.403 132.851 259.657 133.606 259.657 134.545V135.212H254.864C254.885 136.029 255.091 136.649 255.48 137.072C255.873 137.495 256.426 137.707 257.137 137.707C257.886 137.707 258.626 137.55 259.358 137.237V138.176C258.986 138.337 258.633 138.451 258.298 138.519C257.968 138.591 257.568 138.627 257.099 138.627ZM256.813 132.298C256.254 132.298 255.808 132.48 255.474 132.844C255.143 133.208 254.949 133.712 254.89 134.355H258.527C258.527 133.691 258.379 133.183 258.082 132.832C257.786 132.476 257.363 132.298 256.813 132.298ZM264.658 138.627C263.63 138.627 262.818 138.314 262.221 137.688C261.628 137.061 261.332 136.192 261.332 135.079C261.332 133.957 261.607 133.066 262.157 132.406C262.712 131.746 263.454 131.416 264.385 131.416C265.257 131.416 265.947 131.704 266.455 132.279C266.963 132.851 267.216 133.606 267.216 134.545V135.212H262.424C262.445 136.029 262.65 136.649 263.04 137.072C263.433 137.495 263.986 137.707 264.696 137.707C265.445 137.707 266.186 137.55 266.918 137.237V138.176C266.546 138.337 266.192 138.451 265.858 138.519C265.528 138.591 265.128 138.627 264.658 138.627ZM264.373 132.298C263.814 132.298 263.368 132.48 263.033 132.844C262.703 133.208 262.509 133.712 262.449 134.355H266.087C266.087 133.691 265.938 133.183 265.642 132.832C265.346 132.476 264.923 132.298 264.373 132.298ZM270.32 134.939C270.502 134.681 270.779 134.342 271.152 133.923L273.399 131.543H274.649L271.831 134.507L274.846 138.5H273.57L271.114 135.212L270.32 135.897V138.5H269.279V128.623H270.32V133.86C270.32 134.093 270.303 134.452 270.269 134.939H270.32ZM277.423 138.5H276.369V128.623H277.423V138.5ZM278.813 131.543H279.943L281.466 135.51C281.801 136.416 282.008 137.07 282.088 137.472H282.139C282.194 137.256 282.308 136.888 282.482 136.367C282.66 135.842 283.235 134.234 284.208 131.543H285.338L282.349 139.465C282.052 140.248 281.705 140.802 281.308 141.128C280.914 141.458 280.429 141.623 279.854 141.623C279.532 141.623 279.215 141.587 278.902 141.515V140.671C279.135 140.722 279.395 140.747 279.683 140.747C280.406 140.747 280.922 140.341 281.231 139.528L281.619 138.538L278.813 131.543Z" fill="#232323" fill-opacity="0.92"/>
<defs>
<filter id="filter0_d" x="0.958008" y="0" width="330" height="190" filterUnits="userSpaceOnUse" color-interpolation-filters="sRGB">
<feFlood flood-opacity="0" result="BackgroundImageFix"/>
<feColorMatrix in="SourceAlpha" type="matrix" values="0 0 0 0 0 0 0 0 0 0 0 0 0 0 0 0 0 0 127 0" result="hardAlpha"/>
<feOffset dx="-2" dy="4"/>
<feGaussianBlur stdDeviation="7.5"/>
<feColorMatrix type="matrix" values="0 0 0 0 0.748625 0 0 0 0 0.883333 0 0 0 0 0.883333 0 0 0 0.61 0"/>
<feBlend mode="normal" in2="BackgroundImageFix" result="effect1_dropShadow"/>
<feBlend mode="normal" in="SourceGraphic" in2="effect1_dropShadow" result="shape"/>
</filter>
</defs>
</svg>
