<svg width="331" height="190" viewBox="0 0 331 190" fill="none" xmlns="http://www.w3.org/2000/svg">
<g filter="url(#filter0_d)">
<rect x="17.958" y="11" width="300" height="160" rx="15" fill="white"/>
</g>
<path d="M52.9717 52.8408C52.9717 53.7204 52.6527 54.4062 52.0146 54.8984C51.3766 55.3906 50.5107 55.6367 49.417 55.6367C48.2321 55.6367 47.3206 55.484 46.6826 55.1787V54.0576C47.0928 54.2308 47.5394 54.3675 48.0225 54.4678C48.5055 54.568 48.984 54.6182 49.458 54.6182C50.2327 54.6182 50.8161 54.4723 51.208 54.1807C51.5999 53.8844 51.7959 53.4743 51.7959 52.9502C51.7959 52.6038 51.7253 52.3213 51.584 52.1025C51.4473 51.8792 51.2148 51.6742 50.8867 51.4873C50.5632 51.3005 50.0687 51.0885 49.4033 50.8516C48.4736 50.5189 47.8083 50.1247 47.4072 49.6689C47.0107 49.2132 46.8125 48.6185 46.8125 47.8848C46.8125 47.1146 47.1019 46.5016 47.6807 46.0459C48.2594 45.5902 49.0251 45.3623 49.9775 45.3623C50.971 45.3623 51.8848 45.5446 52.7188 45.9092L52.3564 46.9209C51.5316 46.5745 50.7295 46.4014 49.9502 46.4014C49.335 46.4014 48.8542 46.5335 48.5078 46.7979C48.1615 47.0622 47.9883 47.429 47.9883 47.8984C47.9883 48.2448 48.0521 48.5296 48.1797 48.7529C48.3073 48.9717 48.5215 49.1745 48.8223 49.3613C49.1276 49.5436 49.5924 49.7464 50.2168 49.9697C51.265 50.3434 51.985 50.7445 52.377 51.1729C52.7734 51.6012 52.9717 52.1572 52.9717 52.8408ZM58.3846 54.7002C58.5852 54.7002 58.7789 54.6865 58.9657 54.6592C59.1526 54.6273 59.3007 54.5954 59.41 54.5635V55.4316C59.287 55.4909 59.1047 55.5387 58.8632 55.5752C58.6262 55.6162 58.412 55.6367 58.2206 55.6367C56.7714 55.6367 56.0468 54.8734 56.0468 53.3467V48.8896H54.9735V48.3428L56.0468 47.8711L56.5253 46.2715H57.1815V48.0078H59.3554V48.8896H57.1815V53.2988C57.1815 53.75 57.2886 54.0964 57.5028 54.3379C57.717 54.5794 58.011 54.7002 58.3846 54.7002ZM66.6414 55.5L66.4158 54.4336H66.3611C65.9874 54.903 65.6137 55.222 65.24 55.3906C64.8709 55.5547 64.4083 55.6367 63.8523 55.6367C63.1095 55.6367 62.5261 55.4453 62.1023 55.0625C61.683 54.6797 61.4734 54.1351 61.4734 53.4287C61.4734 51.9157 62.6834 51.1227 65.1033 51.0498L66.3748 51.0088V50.5439C66.3748 49.9561 66.2472 49.5231 65.992 49.2451C65.7413 48.9626 65.338 48.8213 64.782 48.8213C64.1576 48.8213 63.4513 49.0127 62.6629 49.3955L62.3142 48.5273C62.6834 48.3268 63.0867 48.1696 63.5242 48.0557C63.9662 47.9417 64.4083 47.8848 64.8504 47.8848C65.7436 47.8848 66.4044 48.083 66.8328 48.4795C67.2657 48.876 67.4822 49.5117 67.4822 50.3867V55.5H66.6414ZM64.0779 54.7002C64.7843 54.7002 65.338 54.5065 65.739 54.1191C66.1446 53.7318 66.3474 53.1895 66.3474 52.4922V51.8154L65.2127 51.8633C64.3103 51.8952 63.6586 52.0365 63.2576 52.2871C62.8611 52.5332 62.6629 52.9183 62.6629 53.4424C62.6629 53.8525 62.7859 54.1647 63.032 54.3789C63.2826 54.5931 63.6313 54.7002 64.0779 54.7002ZM76.0739 55.5V50.6533C76.0739 50.0426 75.9349 49.5869 75.6569 49.2861C75.3789 48.9854 74.9437 48.835 74.3512 48.835C73.5674 48.835 72.9931 49.0469 72.6286 49.4707C72.264 49.8945 72.0817 50.5941 72.0817 51.5693V55.5H70.9469V48.0078H71.8698L72.0543 49.0332H72.109C72.3414 48.6641 72.6673 48.3792 73.0866 48.1787C73.5058 47.9736 73.973 47.8711 74.4879 47.8711C75.3903 47.8711 76.0693 48.0898 76.525 48.5273C76.9808 48.9603 77.2086 49.6553 77.2086 50.6123V55.5H76.0739ZM85.7661 54.4951H85.7046C85.1805 55.2562 84.3967 55.6367 83.353 55.6367C82.3732 55.6367 81.6099 55.3018 81.063 54.6318C80.5207 53.9619 80.2495 53.0094 80.2495 51.7744C80.2495 50.5394 80.523 49.5801 81.0698 48.8965C81.6167 48.2129 82.3778 47.8711 83.353 47.8711C84.3693 47.8711 85.1486 48.2402 85.6909 48.9785H85.7798L85.732 48.4385L85.7046 47.9121V44.8633H86.8394V55.5H85.9165L85.7661 54.4951ZM83.4966 54.6865C84.2713 54.6865 84.8319 54.4769 85.1782 54.0576C85.5292 53.6338 85.7046 52.9525 85.7046 52.0137V51.7744C85.7046 50.7126 85.5269 49.9561 85.1714 49.5049C84.8205 49.0492 84.2577 48.8213 83.4829 48.8213C82.8176 48.8213 82.3071 49.0811 81.9517 49.6006C81.6008 50.1156 81.4253 50.8447 81.4253 51.7881C81.4253 52.7451 81.6008 53.4674 81.9517 53.9551C82.3026 54.4427 82.8176 54.6865 83.4966 54.6865ZM94.9799 55.5L94.7543 54.4336H94.6996C94.3259 54.903 93.9522 55.222 93.5785 55.3906C93.2094 55.5547 92.7468 55.6367 92.1908 55.6367C91.448 55.6367 90.8646 55.4453 90.4408 55.0625C90.0215 54.6797 89.8119 54.1351 89.8119 53.4287C89.8119 51.9157 91.0219 51.1227 93.4418 51.0498L94.7133 51.0088V50.5439C94.7133 49.9561 94.5857 49.5231 94.3305 49.2451C94.0798 48.9626 93.6765 48.8213 93.1205 48.8213C92.4962 48.8213 91.7898 49.0127 91.0014 49.3955L90.6527 48.5273C91.0219 48.3268 91.4252 48.1696 91.8627 48.0557C92.3048 47.9417 92.7468 47.8848 93.1889 47.8848C94.0821 47.8848 94.7429 48.083 95.1713 48.4795C95.6042 48.876 95.8207 49.5117 95.8207 50.3867V55.5H94.9799ZM92.4164 54.7002C93.1228 54.7002 93.6765 54.5065 94.0775 54.1191C94.4831 53.7318 94.6859 53.1895 94.6859 52.4922V51.8154L93.5512 51.8633C92.6488 51.8952 91.9971 52.0365 91.5961 52.2871C91.1996 52.5332 91.0014 52.9183 91.0014 53.4424C91.0014 53.8525 91.1244 54.1647 91.3705 54.3789C91.6212 54.5931 91.9698 54.7002 92.4164 54.7002ZM102.703 47.8711C103.036 47.8711 103.335 47.8984 103.599 47.9531L103.442 49.0059C103.132 48.9375 102.858 48.9033 102.621 48.9033C102.015 48.9033 101.496 49.1494 101.063 49.6416C100.634 50.1338 100.42 50.7467 100.42 51.4805V55.5H99.2854V48.0078H100.222L100.352 49.3955H100.407C100.685 48.9079 101.019 48.5319 101.411 48.2676C101.803 48.0033 102.234 47.8711 102.703 47.8711ZM111.22 54.4951H111.158C110.634 55.2562 109.85 55.6367 108.807 55.6367C107.827 55.6367 107.064 55.3018 106.517 54.6318C105.974 53.9619 105.703 53.0094 105.703 51.7744C105.703 50.5394 105.977 49.5801 106.524 48.8965C107.07 48.2129 107.832 47.8711 108.807 47.8711C109.823 47.8711 110.602 48.2402 111.145 48.9785H111.234L111.186 48.4385L111.158 47.9121V44.8633H112.293V55.5H111.37L111.22 54.4951ZM108.95 54.6865C109.725 54.6865 110.286 54.4769 110.632 54.0576C110.983 53.6338 111.158 52.9525 111.158 52.0137V51.7744C111.158 50.7126 110.981 49.9561 110.625 49.5049C110.274 49.0492 109.711 48.8213 108.937 48.8213C108.271 48.8213 107.761 49.0811 107.405 49.6006C107.055 50.1156 106.879 50.8447 106.879 51.7881C106.879 52.7451 107.055 53.4674 107.405 53.9551C107.756 54.4427 108.271 54.6865 108.95 54.6865ZM119.954 52.2666V51.2275H123.31V52.2666H119.954ZM136.645 47.8574C136.645 48.4954 136.465 49.0173 136.105 49.4229C135.75 49.8285 135.244 50.0996 134.588 50.2363V50.291C135.39 50.3913 135.984 50.6465 136.372 51.0566C136.759 51.4668 136.953 52.0046 136.953 52.6699C136.953 53.6224 136.622 54.3561 135.962 54.8711C135.301 55.3815 134.362 55.6367 133.145 55.6367C132.617 55.6367 132.131 55.5957 131.689 55.5137C131.252 55.4362 130.826 55.2972 130.411 55.0967V54.0166C130.844 54.2308 131.304 54.3949 131.792 54.5088C132.284 54.6182 132.749 54.6729 133.186 54.6729C134.913 54.6729 135.777 53.9961 135.777 52.6426C135.777 51.4303 134.825 50.8242 132.92 50.8242H131.935V49.8467H132.933C133.713 49.8467 134.33 49.6758 134.786 49.334C135.242 48.9876 135.469 48.5091 135.469 47.8984C135.469 47.4108 135.301 47.028 134.964 46.75C134.631 46.472 134.177 46.333 133.603 46.333C133.166 46.333 132.753 46.3923 132.366 46.5107C131.979 46.6292 131.536 46.848 131.04 47.167L130.466 46.4014C130.876 46.0778 131.347 45.8249 131.881 45.6426C132.418 45.4557 132.983 45.3623 133.576 45.3623C134.547 45.3623 135.301 45.5856 135.839 46.0322C136.376 46.4743 136.645 47.0827 136.645 47.8574ZM142.708 49.3955C143.76 49.3955 144.587 49.6576 145.189 50.1816C145.795 50.7012 146.098 51.4144 146.098 52.3213C146.098 53.3558 145.768 54.167 145.107 54.7549C144.451 55.3428 143.544 55.6367 142.386 55.6367C141.261 55.6367 140.402 55.4567 139.809 55.0967V54.0029C140.128 54.208 140.525 54.3698 140.999 54.4883C141.473 54.6022 141.94 54.6592 142.4 54.6592C143.202 54.6592 143.824 54.4701 144.266 54.0918C144.713 53.7135 144.936 53.1667 144.936 52.4512C144.936 51.0566 144.082 50.3594 142.373 50.3594C141.94 50.3594 141.361 50.4255 140.636 50.5576L140.048 50.1816L140.424 45.5059H145.394V46.5518H141.395L141.142 49.5527C141.666 49.4479 142.188 49.3955 142.708 49.3955ZM149.686 48.4863C149.686 49.2611 149.77 49.8421 149.939 50.2295C150.108 50.6169 150.381 50.8105 150.759 50.8105C151.507 50.8105 151.88 50.0358 151.88 48.4863C151.88 46.946 151.507 46.1758 150.759 46.1758C150.381 46.1758 150.108 46.3672 149.939 46.75C149.77 47.1328 149.686 47.7116 149.686 48.4863ZM152.817 48.4863C152.817 49.5254 152.641 50.3115 152.29 50.8447C151.944 51.3734 151.434 51.6377 150.759 51.6377C150.121 51.6377 149.624 51.3665 149.269 50.8242C148.918 50.2819 148.743 49.5026 148.743 48.4863C148.743 47.4518 148.911 46.6725 149.248 46.1484C149.59 45.6243 150.094 45.3623 150.759 45.3623C151.42 45.3623 151.928 45.6335 152.284 46.1758C152.639 46.7181 152.817 47.4883 152.817 48.4863ZM155.702 52.4922C155.702 53.2715 155.786 53.8548 155.955 54.2422C156.123 54.625 156.399 54.8164 156.782 54.8164C157.164 54.8164 157.447 54.6273 157.629 54.249C157.812 53.8662 157.903 53.2806 157.903 52.4922C157.903 51.7129 157.812 51.1364 157.629 50.7627C157.447 50.3844 157.164 50.1953 156.782 50.1953C156.399 50.1953 156.123 50.3844 155.955 50.7627C155.786 51.1364 155.702 51.7129 155.702 52.4922ZM158.839 52.4922C158.839 53.5267 158.664 54.3105 158.313 54.8438C157.967 55.3724 157.456 55.6367 156.782 55.6367C156.135 55.6367 155.636 55.3656 155.285 54.8232C154.938 54.2809 154.765 53.5039 154.765 52.4922C154.765 51.4577 154.934 50.6784 155.271 50.1543C155.613 49.6302 156.116 49.3682 156.782 49.3682C157.429 49.3682 157.932 49.637 158.292 50.1748C158.657 50.708 158.839 51.4805 158.839 52.4922ZM157.076 45.5059L151.532 55.5H150.527L156.071 45.5059H157.076ZM167.97 51.3438V55.5H166.808V45.5059H169.549C170.775 45.5059 171.68 45.7406 172.263 46.21C172.851 46.6794 173.145 47.3857 173.145 48.3291C173.145 49.6507 172.475 50.5439 171.135 51.0088L173.849 55.5H172.475L170.055 51.3438H167.97ZM167.97 50.3457H169.563C170.383 50.3457 170.985 50.1839 171.367 49.8604C171.75 49.5322 171.942 49.0423 171.942 48.3906C171.942 47.7298 171.746 47.2536 171.354 46.9619C170.966 46.6702 170.342 46.5244 169.481 46.5244H167.97V50.3457ZM185.257 50.4893C185.257 52.0889 184.851 53.3467 184.04 54.2627C183.233 55.1787 182.11 55.6367 180.67 55.6367C179.198 55.6367 178.061 55.1878 177.259 54.29C176.461 53.3877 176.063 52.1162 176.063 50.4756C176.063 48.8486 176.464 47.5885 177.266 46.6953C178.068 45.7975 179.207 45.3486 180.684 45.3486C182.119 45.3486 183.24 45.8044 184.047 46.7158C184.854 47.6273 185.257 48.8851 185.257 50.4893ZM177.293 50.4893C177.293 51.8428 177.58 52.8704 178.154 53.5723C178.733 54.2695 179.572 54.6182 180.67 54.6182C181.777 54.6182 182.614 54.2695 183.179 53.5723C183.744 52.875 184.026 51.8473 184.026 50.4893C184.026 49.1449 183.744 48.1263 183.179 47.4336C182.618 46.7363 181.787 46.3877 180.684 46.3877C179.576 46.3877 178.733 46.7386 178.154 47.4404C177.58 48.1377 177.293 49.154 177.293 50.4893ZM188.612 55.5V45.5059H189.774V55.5H188.612Z" fill="#232323" fill-opacity="0.92"/>
<path d="M61.9541 96.8057C61.9541 98.3584 61.3926 99.6084 60.2695 100.556C59.1465 101.493 57.5742 102.055 55.5527 102.24V105.243H53.5459V102.299C51.1631 102.25 49.0732 101.83 47.2764 101.039V97.1719C48.126 97.5918 49.1465 97.9629 50.3379 98.2852C51.5391 98.6074 52.6084 98.7979 53.5459 98.8564V94.3154L52.5645 93.9346C50.6309 93.1729 49.2588 92.3477 48.4482 91.459C47.6475 90.5605 47.2471 89.4521 47.2471 88.1338C47.2471 86.7178 47.7988 85.5557 48.9023 84.6475C50.0156 83.7295 51.5635 83.1729 53.5459 82.9775V80.7363H55.5527V82.9189C57.7891 83.0166 59.8105 83.4658 61.6172 84.2666L60.2402 87.6943C58.7168 87.0693 57.1543 86.6885 55.5527 86.5518V90.873C57.457 91.6055 58.8096 92.2402 59.6104 92.7773C60.4209 93.3145 61.0117 93.9053 61.3828 94.5498C61.7637 95.1943 61.9541 95.9463 61.9541 96.8057ZM57.5449 97.0254C57.5449 96.6152 57.3789 96.2686 57.0469 95.9854C56.7148 95.7021 56.2168 95.4092 55.5527 95.1064V98.7539C56.8809 98.5293 57.5449 97.9531 57.5449 97.0254ZM51.6562 88.1338C51.6562 88.5635 51.8027 88.9199 52.0957 89.2031C52.3984 89.4766 52.8818 89.7598 53.5459 90.0527V86.6104C52.2861 86.7959 51.6562 87.3037 51.6562 88.1338ZM72.9908 89.8184C75.0611 89.8184 76.7066 90.3994 77.9273 91.5615C79.1578 92.7236 79.773 94.3154 79.773 96.3369C79.773 98.7295 79.0357 100.57 77.5611 101.859C76.0865 103.148 73.9771 103.793 71.233 103.793C68.8502 103.793 66.9264 103.407 65.4615 102.636V98.7246C66.233 99.1348 67.1314 99.4717 68.1568 99.7354C69.1822 99.9893 70.1539 100.116 71.0719 100.116C73.8355 100.116 75.2174 98.9834 75.2174 96.7178C75.2174 94.5596 73.7867 93.4805 70.9254 93.4805C70.4078 93.4805 69.8365 93.5342 69.2115 93.6416C68.5865 93.7393 68.0787 93.8467 67.6881 93.9639L65.8863 92.9971L66.692 82.084H78.3082V85.9219H70.6617L70.2662 90.126L70.7789 90.0234C71.3746 89.8867 72.1119 89.8184 72.9908 89.8184ZM98.09 92.792C98.09 96.5322 97.4748 99.3008 96.2443 101.098C95.0236 102.895 93.1389 103.793 90.59 103.793C88.1193 103.793 86.2541 102.865 84.9943 101.01C83.7443 99.1543 83.1193 96.415 83.1193 92.792C83.1193 89.0127 83.7297 86.2295 84.9504 84.4424C86.1711 82.6455 88.051 81.7471 90.59 81.7471C93.0607 81.7471 94.926 82.6846 96.1857 84.5596C97.4553 86.4346 98.09 89.1787 98.09 92.792ZM87.6164 92.792C87.6164 95.4189 87.841 97.3037 88.2902 98.4463C88.7492 99.5791 89.5158 100.146 90.59 100.146C91.6447 100.146 92.4064 99.5693 92.8752 98.417C93.3439 97.2646 93.5783 95.3896 93.5783 92.792C93.5783 90.165 93.3391 88.2803 92.8605 87.1377C92.3918 85.9854 91.635 85.4092 90.59 85.4092C89.5256 85.4092 88.7639 85.9854 88.3049 87.1377C87.8459 88.2803 87.6164 90.165 87.6164 92.792ZM109.661 97.2891V93.627H117.527V97.2891H109.661ZM144.024 96.8057C144.024 98.3584 143.463 99.6084 142.339 100.556C141.216 101.493 139.644 102.055 137.623 102.24V105.243H135.616V102.299C133.233 102.25 131.143 101.83 129.346 101.039V97.1719C130.196 97.5918 131.216 97.9629 132.408 98.2852C133.609 98.6074 134.678 98.7979 135.616 98.8564V94.3154L134.634 93.9346C132.701 93.1729 131.329 92.3477 130.518 91.459C129.717 90.5605 129.317 89.4521 129.317 88.1338C129.317 86.7178 129.869 85.5557 130.972 84.6475C132.086 83.7295 133.633 83.1729 135.616 82.9775V80.7363H137.623V82.9189C139.859 83.0166 141.88 83.4658 143.687 84.2666L142.31 87.6943C140.787 87.0693 139.224 86.6885 137.623 86.5518V90.873C139.527 91.6055 140.879 92.2402 141.68 92.7773C142.491 93.3145 143.082 93.9053 143.453 94.5498C143.834 95.1943 144.024 95.9463 144.024 96.8057ZM139.615 97.0254C139.615 96.6152 139.449 96.2686 139.117 95.9854C138.785 95.7021 138.287 95.4092 137.623 95.1064V98.7539C138.951 98.5293 139.615 97.9531 139.615 97.0254ZM133.726 88.1338C133.726 88.5635 133.873 88.9199 134.166 89.2031C134.468 89.4766 134.952 89.7598 135.616 90.0527V86.6104C134.356 86.7959 133.726 87.3037 133.726 88.1338ZM162.722 99.0615H160.144V103.5H155.72V99.0615H146.579V95.9121L155.969 82.084H160.144V95.5459H162.722V99.0615ZM155.72 95.5459V91.9131C155.72 91.3076 155.744 90.4287 155.793 89.2764C155.842 88.124 155.881 87.4551 155.91 87.2695H155.793C155.432 88.0703 154.997 88.8516 154.489 89.6133L150.564 95.5459H155.72ZM180.189 91.2246C180.189 95.4434 179.301 98.5928 177.523 100.673C175.746 102.753 173.055 103.793 169.452 103.793C168.182 103.793 167.221 103.725 166.566 103.588V99.9551C167.387 100.16 168.246 100.263 169.144 100.263C170.658 100.263 171.903 100.043 172.88 99.6035C173.856 99.1543 174.603 98.4561 175.121 97.5088C175.638 96.5518 175.936 95.2383 176.014 93.5684H175.839C175.272 94.4863 174.618 95.1309 173.876 95.502C173.134 95.873 172.206 96.0586 171.093 96.0586C169.227 96.0586 167.758 95.4629 166.683 94.2715C165.609 93.0703 165.072 91.4053 165.072 89.2764C165.072 86.9814 165.721 85.1699 167.02 83.8418C168.329 82.5039 170.106 81.835 172.352 81.835C173.934 81.835 175.316 82.2061 176.498 82.9482C177.689 83.6904 178.602 84.7695 179.237 86.1855C179.872 87.5918 180.189 89.2715 180.189 91.2246ZM172.44 85.4678C171.503 85.4678 170.77 85.79 170.243 86.4346C169.716 87.0791 169.452 88.0068 169.452 89.2178C169.452 90.2529 169.691 91.0732 170.17 91.6787C170.648 92.2842 171.376 92.5869 172.352 92.5869C173.27 92.5869 174.056 92.2891 174.711 91.6934C175.365 91.0879 175.692 90.3945 175.692 89.6133C175.692 88.4512 175.385 87.4697 174.769 86.6689C174.164 85.8682 173.387 85.4678 172.44 85.4678ZM198.228 91.2246C198.228 95.4434 197.339 98.5928 195.562 100.673C193.785 102.753 191.094 103.793 187.491 103.793C186.221 103.793 185.259 103.725 184.605 103.588V99.9551C185.425 100.16 186.285 100.263 187.183 100.263C188.697 100.263 189.942 100.043 190.918 99.6035C191.895 99.1543 192.642 98.4561 193.16 97.5088C193.677 96.5518 193.975 95.2383 194.053 93.5684H193.877C193.311 94.4863 192.657 95.1309 191.914 95.502C191.172 95.873 190.245 96.0586 189.131 96.0586C187.266 96.0586 185.796 95.4629 184.722 94.2715C183.648 93.0703 183.111 91.4053 183.111 89.2764C183.111 86.9814 183.76 85.1699 185.059 83.8418C186.368 82.5039 188.145 81.835 190.391 81.835C191.973 81.835 193.355 82.2061 194.537 82.9482C195.728 83.6904 196.641 84.7695 197.276 86.1855C197.911 87.5918 198.228 89.2715 198.228 91.2246ZM190.479 85.4678C189.541 85.4678 188.809 85.79 188.282 86.4346C187.754 87.0791 187.491 88.0068 187.491 89.2178C187.491 90.2529 187.73 91.0732 188.208 91.6787C188.687 92.2842 189.414 92.5869 190.391 92.5869C191.309 92.5869 192.095 92.2891 192.749 91.6934C193.404 91.0879 193.731 90.3945 193.731 89.6133C193.731 88.4512 193.423 87.4697 192.808 86.6689C192.203 85.8682 191.426 85.4678 190.479 85.4678Z" fill="#EF0374" fill-opacity="0.8"/>
<path d="M53.1182 131.924C53.1182 132.863 52.7965 133.587 52.1533 134.095C51.5143 134.598 50.5981 134.85 49.4048 134.85H48.313V138.5H47.2339V129.22H49.6396C51.9587 129.22 53.1182 130.121 53.1182 131.924ZM48.313 133.923H49.2842C50.2406 133.923 50.9325 133.769 51.3599 133.46C51.7873 133.151 52.001 132.656 52.001 131.975C52.001 131.361 51.8 130.904 51.3979 130.604C50.9959 130.303 50.3696 130.153 49.519 130.153H48.313V133.923ZM58.342 131.416C58.651 131.416 58.9281 131.441 59.1736 131.492L59.0276 132.47C58.7398 132.406 58.4859 132.375 58.2659 132.375C57.703 132.375 57.2206 132.603 56.8186 133.06C56.4208 133.517 56.2219 134.086 56.2219 134.768V138.5H55.1682V131.543H56.0378L56.1584 132.832H56.2092C56.4674 132.379 56.7784 132.03 57.1423 131.784C57.5063 131.539 57.9062 131.416 58.342 131.416ZM66.7397 135.015C66.7397 136.149 66.4541 137.036 65.8828 137.675C65.3115 138.31 64.5223 138.627 63.5151 138.627C62.893 138.627 62.3408 138.481 61.8584 138.189C61.376 137.897 61.0036 137.478 60.7412 136.932C60.4788 136.386 60.3476 135.747 60.3476 135.015C60.3476 133.881 60.6312 132.999 61.1982 132.368C61.7653 131.733 62.5524 131.416 63.5596 131.416C64.5329 131.416 65.3052 131.74 65.8764 132.387C66.452 133.035 66.7397 133.911 66.7397 135.015ZM61.4394 135.015C61.4394 135.904 61.6172 136.581 61.9726 137.046C62.3281 137.512 62.8507 137.745 63.5405 137.745C64.2303 137.745 64.7529 137.514 65.1084 137.053C65.4681 136.587 65.6479 135.908 65.6479 135.015C65.6479 134.131 65.4681 133.46 65.1084 133.003C64.7529 132.542 64.2261 132.311 63.5278 132.311C62.838 132.311 62.3175 132.537 61.9663 132.99C61.6151 133.443 61.4394 134.118 61.4394 135.015ZM71.989 132.362H70.218V138.5H69.1643V132.362H67.9201V131.886L69.1643 131.505V131.118C69.1643 129.408 69.9112 128.553 71.405 128.553C71.7732 128.553 72.2048 128.627 72.6999 128.775L72.427 129.62C72.0207 129.488 71.6737 129.423 71.386 129.423C70.9882 129.423 70.6941 129.556 70.5036 129.823C70.3132 130.085 70.218 130.508 70.218 131.092V131.543H71.989V132.362ZM74.3122 138.5H73.2585V131.543H74.3122V138.5ZM73.1696 129.658C73.1696 129.417 73.2289 129.241 73.3474 129.131C73.4659 129.017 73.614 128.959 73.7917 128.959C73.961 128.959 74.107 129.017 74.2297 129.131C74.3524 129.245 74.4138 129.421 74.4138 129.658C74.4138 129.895 74.3524 130.072 74.2297 130.191C74.107 130.305 73.961 130.362 73.7917 130.362C73.614 130.362 73.4659 130.305 73.3474 130.191C73.2289 130.072 73.1696 129.895 73.1696 129.658ZM79.0537 137.757C79.2399 137.757 79.4197 137.745 79.5932 137.719C79.7667 137.69 79.9043 137.66 80.0058 137.63V138.437C79.8916 138.492 79.7223 138.536 79.498 138.57C79.278 138.608 79.0791 138.627 78.9013 138.627C77.5556 138.627 76.8828 137.918 76.8828 136.5V132.362H75.8862V131.854L76.8828 131.416L77.3271 129.931H77.9365V131.543H79.955V132.362H77.9365V136.456C77.9365 136.875 78.0359 137.197 78.2348 137.421C78.4337 137.645 78.7067 137.757 79.0537 137.757ZM88.4731 131.416C88.782 131.416 89.0592 131.441 89.3046 131.492L89.1586 132.47C88.8709 132.406 88.617 132.375 88.3969 132.375C87.8341 132.375 87.3517 132.603 86.9496 133.06C86.5519 133.517 86.353 134.086 86.353 134.768V138.5H85.2993V131.543H86.1689L86.2895 132.832H86.3403C86.5984 132.379 86.9094 132.03 87.2734 131.784C87.6373 131.539 88.0372 131.416 88.4731 131.416ZM95.1442 138.5L94.9347 137.51H94.884C94.537 137.946 94.19 138.242 93.8429 138.398C93.5002 138.551 93.0707 138.627 92.5544 138.627C91.8646 138.627 91.3229 138.449 90.9294 138.094C90.5401 137.738 90.3454 137.233 90.3454 136.577C90.3454 135.172 91.4689 134.435 93.716 134.368L94.8967 134.33V133.898C94.8967 133.352 94.7782 132.95 94.5412 132.692C94.3084 132.43 93.9339 132.298 93.4177 132.298C92.8379 132.298 92.182 132.476 91.4499 132.832L91.1262 132.025C91.4689 131.839 91.8434 131.693 92.2497 131.587C92.6602 131.482 93.0707 131.429 93.4811 131.429C94.3106 131.429 94.9242 131.613 95.322 131.981C95.724 132.349 95.925 132.939 95.925 133.752V138.5H95.1442ZM92.7638 137.757C93.4198 137.757 93.9339 137.577 94.3063 137.218C94.683 136.858 94.8713 136.354 94.8713 135.707V135.079L93.8176 135.123C92.9797 135.153 92.3745 135.284 92.0021 135.517C91.634 135.745 91.4499 136.103 91.4499 136.589C91.4499 136.97 91.5641 137.26 91.7927 137.459C92.0254 137.658 92.3491 137.757 92.7638 137.757ZM103.123 138.5V134C103.123 133.432 102.994 133.009 102.736 132.73C102.478 132.451 102.073 132.311 101.523 132.311C100.795 132.311 100.262 132.508 99.9238 132.901C99.5852 133.295 99.4159 133.944 99.4159 134.85V138.5H98.3622V131.543H99.2192L99.3905 132.495H99.4413C99.6572 132.152 99.9597 131.888 100.349 131.702C100.738 131.511 101.172 131.416 101.65 131.416C102.488 131.416 103.119 131.619 103.542 132.025C103.965 132.427 104.177 133.073 104.177 133.961V138.5H103.123ZM112.301 131.543V132.209L111.013 132.362C111.131 132.51 111.237 132.705 111.33 132.946C111.423 133.183 111.47 133.451 111.47 133.752C111.47 134.433 111.237 134.977 110.772 135.383C110.306 135.79 109.667 135.993 108.855 135.993C108.647 135.993 108.453 135.976 108.271 135.942C107.822 136.179 107.598 136.477 107.598 136.837C107.598 137.027 107.676 137.169 107.833 137.262C107.989 137.351 108.258 137.396 108.639 137.396H109.87C110.624 137.396 111.201 137.554 111.603 137.872C112.009 138.189 112.213 138.65 112.213 139.255C112.213 140.026 111.904 140.612 111.286 141.014C110.668 141.42 109.767 141.623 108.582 141.623C107.672 141.623 106.969 141.454 106.474 141.115C105.983 140.777 105.738 140.299 105.738 139.681C105.738 139.257 105.873 138.891 106.144 138.583C106.415 138.274 106.796 138.064 107.287 137.954C107.109 137.874 106.959 137.749 106.836 137.58C106.718 137.41 106.658 137.214 106.658 136.989C106.658 136.735 106.726 136.513 106.861 136.323C106.997 136.132 107.211 135.948 107.503 135.771C107.143 135.622 106.849 135.371 106.62 135.015C106.396 134.66 106.284 134.253 106.284 133.796C106.284 133.035 106.512 132.449 106.969 132.038C107.426 131.623 108.074 131.416 108.912 131.416C109.276 131.416 109.604 131.458 109.896 131.543H112.301ZM106.754 139.668C106.754 140.045 106.912 140.33 107.23 140.525C107.547 140.72 108.002 140.817 108.594 140.817C109.479 140.817 110.133 140.684 110.556 140.417C110.983 140.155 111.197 139.797 111.197 139.344C111.197 138.968 111.081 138.705 110.848 138.557C110.615 138.413 110.177 138.341 109.534 138.341H108.271C107.792 138.341 107.42 138.456 107.153 138.684C106.887 138.913 106.754 139.241 106.754 139.668ZM107.325 133.771C107.325 134.258 107.462 134.626 107.737 134.875C108.013 135.125 108.396 135.25 108.886 135.25C109.915 135.25 110.429 134.751 110.429 133.752C110.429 132.707 109.908 132.184 108.867 132.184C108.372 132.184 107.991 132.317 107.725 132.584C107.458 132.851 107.325 133.246 107.325 133.771ZM116.929 138.627C115.9 138.627 115.088 138.314 114.491 137.688C113.899 137.061 113.602 136.192 113.602 135.079C113.602 133.957 113.878 133.066 114.428 132.406C114.982 131.746 115.725 131.416 116.656 131.416C117.527 131.416 118.217 131.704 118.725 132.279C119.233 132.851 119.487 133.606 119.487 134.545V135.212H114.694C114.715 136.029 114.921 136.649 115.31 137.072C115.704 137.495 116.256 137.707 116.967 137.707C117.716 137.707 118.456 137.55 119.188 137.237V138.176C118.816 138.337 118.463 138.451 118.128 138.519C117.798 138.591 117.398 138.627 116.929 138.627ZM116.643 132.298C116.084 132.298 115.638 132.48 115.304 132.844C114.974 133.208 114.779 133.712 114.72 134.355H118.357C118.357 133.691 118.209 133.183 117.912 132.832C117.616 132.476 117.193 132.298 116.643 132.298ZM126.037 136.602C126.037 137.25 125.796 137.749 125.314 138.1C124.831 138.451 124.154 138.627 123.282 138.627C122.36 138.627 121.64 138.481 121.124 138.189V137.211C121.458 137.381 121.816 137.514 122.197 137.611C122.582 137.709 122.952 137.757 123.308 137.757C123.858 137.757 124.281 137.671 124.577 137.497C124.874 137.319 125.022 137.051 125.022 136.691C125.022 136.42 124.903 136.189 124.666 135.999C124.433 135.804 123.976 135.576 123.295 135.313C122.648 135.072 122.186 134.863 121.911 134.685C121.64 134.503 121.437 134.298 121.302 134.069C121.171 133.841 121.105 133.568 121.105 133.25C121.105 132.683 121.336 132.237 121.797 131.911C122.258 131.581 122.891 131.416 123.695 131.416C124.444 131.416 125.176 131.568 125.891 131.873L125.517 132.73C124.818 132.442 124.186 132.298 123.619 132.298C123.119 132.298 122.743 132.377 122.489 132.533C122.235 132.69 122.108 132.906 122.108 133.181C122.108 133.367 122.155 133.526 122.248 133.657C122.345 133.788 122.499 133.913 122.711 134.031C122.923 134.15 123.329 134.321 123.93 134.545C124.755 134.846 125.311 135.148 125.599 135.453C125.891 135.758 126.037 136.141 126.037 136.602ZM134.79 132.362H133.019V138.5H131.965V132.362H130.721V131.886L131.965 131.505V131.118C131.965 129.408 132.712 128.553 134.206 128.553C134.574 128.553 135.006 128.627 135.501 128.775L135.228 129.62C134.822 129.488 134.475 129.423 134.187 129.423C133.789 129.423 133.495 129.556 133.305 129.823C133.114 130.085 133.019 130.508 133.019 131.092V131.543H134.79V132.362ZM139.494 131.416C139.802 131.416 140.08 131.441 140.325 131.492L140.179 132.47C139.891 132.406 139.637 132.375 139.417 132.375C138.855 132.375 138.372 132.603 137.97 133.06C137.572 133.517 137.373 134.086 137.373 134.768V138.5H136.32V131.543H137.189L137.31 132.832H137.361C137.619 132.379 137.93 132.03 138.294 131.784C138.658 131.539 139.058 131.416 139.494 131.416ZM147.891 135.015C147.891 136.149 147.606 137.036 147.034 137.675C146.463 138.31 145.674 138.627 144.667 138.627C144.045 138.627 143.492 138.481 143.01 138.189C142.527 137.897 142.155 137.478 141.893 136.932C141.63 136.386 141.499 135.747 141.499 135.015C141.499 133.881 141.783 132.999 142.35 132.368C142.917 131.733 143.704 131.416 144.711 131.416C145.684 131.416 146.457 131.74 147.028 132.387C147.603 133.035 147.891 133.911 147.891 135.015ZM142.591 135.015C142.591 135.904 142.769 136.581 143.124 137.046C143.48 137.512 144.002 137.745 144.692 137.745C145.382 137.745 145.904 137.514 146.26 137.053C146.62 136.587 146.799 135.908 146.799 135.015C146.799 134.131 146.62 133.46 146.26 133.003C145.904 132.542 145.378 132.311 144.679 132.311C143.99 132.311 143.469 132.537 143.118 132.99C142.767 133.443 142.591 134.118 142.591 135.015ZM158.872 138.5V133.974C158.872 133.42 158.754 133.005 158.517 132.73C158.28 132.451 157.912 132.311 157.412 132.311C156.757 132.311 156.272 132.499 155.959 132.876C155.646 133.253 155.489 133.832 155.489 134.615V138.5H154.435V133.974C154.435 133.42 154.317 133.005 154.08 132.73C153.843 132.451 153.473 132.311 152.969 132.311C152.309 132.311 151.824 132.51 151.515 132.908C151.211 133.301 151.058 133.949 151.058 134.85V138.5H150.005V131.543H150.862L151.033 132.495H151.084C151.283 132.157 151.562 131.892 151.922 131.702C152.286 131.511 152.692 131.416 153.14 131.416C154.228 131.416 154.939 131.81 155.273 132.597H155.324C155.531 132.233 155.832 131.945 156.225 131.733C156.619 131.522 157.068 131.416 157.571 131.416C158.358 131.416 158.946 131.619 159.336 132.025C159.729 132.427 159.926 133.073 159.926 133.961V138.5H158.872ZM171.459 135.65C171.459 136.225 171.243 136.701 170.812 137.078C170.38 137.451 169.777 137.685 169.003 137.783V139.255H168.184V137.84C167.71 137.84 167.251 137.804 166.806 137.732C166.362 137.656 165.998 137.552 165.715 137.421V136.431C166.066 136.587 166.47 136.716 166.927 136.818C167.388 136.915 167.807 136.964 168.184 136.964V134.171C167.316 133.896 166.707 133.576 166.356 133.212C166.009 132.848 165.835 132.379 165.835 131.803C165.835 131.249 166.049 130.794 166.476 130.438C166.908 130.083 167.477 129.867 168.184 129.791V128.636H169.003V129.778C169.781 129.799 170.533 129.956 171.256 130.248L170.926 131.08C170.296 130.83 169.654 130.682 169.003 130.635V133.39C169.667 133.602 170.164 133.809 170.494 134.012C170.825 134.211 171.068 134.442 171.224 134.704C171.381 134.962 171.459 135.278 171.459 135.65ZM170.38 135.732C170.38 135.428 170.285 135.182 170.095 134.996C169.908 134.806 169.544 134.617 169.003 134.431V136.9C169.921 136.773 170.38 136.384 170.38 135.732ZM166.908 131.791C166.908 132.112 167.003 132.37 167.194 132.565C167.384 132.76 167.714 132.944 168.184 133.117V130.661C167.765 130.728 167.448 130.862 167.232 131.061C167.016 131.255 166.908 131.499 166.908 131.791ZM177.121 138.5H176.093V131.886C176.093 131.336 176.11 130.815 176.144 130.324C176.055 130.413 175.955 130.506 175.845 130.604C175.735 130.701 175.232 131.113 174.335 131.841L173.776 131.118L176.232 129.22H177.121V138.5ZM182.091 138.5L185.938 130.191H180.879V129.22H187.055V130.064L183.259 138.5H182.091ZM194.983 137.757C195.169 137.757 195.349 137.745 195.522 137.719C195.696 137.69 195.833 137.66 195.935 137.63V138.437C195.821 138.492 195.651 138.536 195.427 138.57C195.207 138.608 195.008 138.627 194.83 138.627C193.485 138.627 192.812 137.918 192.812 136.5V132.362H191.815V131.854L192.812 131.416L193.256 129.931H193.866V131.543H195.884V132.362H193.866V136.456C193.866 136.875 193.965 137.197 194.164 137.421C194.363 137.645 194.636 137.757 194.983 137.757ZM203.596 135.015C203.596 136.149 203.311 137.036 202.739 137.675C202.168 138.31 201.379 138.627 200.372 138.627C199.75 138.627 199.197 138.481 198.715 138.189C198.232 137.897 197.86 137.478 197.598 136.932C197.335 136.386 197.204 135.747 197.204 135.015C197.204 133.881 197.488 132.999 198.055 132.368C198.622 131.733 199.409 131.416 200.416 131.416C201.389 131.416 202.162 131.74 202.733 132.387C203.308 133.035 203.596 133.911 203.596 135.015ZM198.296 135.015C198.296 135.904 198.474 136.581 198.829 137.046C199.185 137.512 199.707 137.745 200.397 137.745C201.087 137.745 201.609 137.514 201.965 137.053C202.325 136.587 202.504 135.908 202.504 135.015C202.504 134.131 202.325 133.46 201.965 133.003C201.609 132.542 201.083 132.311 200.384 132.311C199.695 132.311 199.174 132.537 198.823 132.99C198.472 133.443 198.296 134.118 198.296 135.015ZM214.806 135.65C214.806 136.225 214.59 136.701 214.158 137.078C213.727 137.451 213.124 137.685 212.349 137.783V139.255H211.53V137.84C211.056 137.84 210.597 137.804 210.153 137.732C209.708 137.656 209.345 137.552 209.061 137.421V136.431C209.412 136.587 209.816 136.716 210.273 136.818C210.735 136.915 211.154 136.964 211.53 136.964V134.171C210.663 133.896 210.053 133.576 209.702 133.212C209.355 132.848 209.182 132.379 209.182 131.803C209.182 131.249 209.395 130.794 209.823 130.438C210.254 130.083 210.824 129.867 211.53 129.791V128.636H212.349V129.778C213.128 129.799 213.879 129.956 214.603 130.248L214.272 131.08C213.642 130.83 213.001 130.682 212.349 130.635V133.39C213.014 133.602 213.511 133.809 213.841 134.012C214.171 134.211 214.414 134.442 214.571 134.704C214.727 134.962 214.806 135.278 214.806 135.65ZM213.727 135.732C213.727 135.428 213.631 135.182 213.441 134.996C213.255 134.806 212.891 134.617 212.349 134.431V136.9C213.267 136.773 213.727 136.384 213.727 135.732ZM210.254 131.791C210.254 132.112 210.35 132.37 210.54 132.565C210.73 132.76 211.061 132.944 211.53 133.117V130.661C211.111 130.728 210.794 130.862 210.578 131.061C210.362 131.255 210.254 131.499 210.254 131.791ZM220.468 138.5H219.439V131.886C219.439 131.336 219.456 130.815 219.49 130.324C219.401 130.413 219.302 130.506 219.192 130.604C219.082 130.701 218.578 131.113 217.681 131.841L217.122 131.118L219.579 129.22H220.468V138.5ZM225.437 138.5L229.284 130.191H224.225V129.22H230.401V130.064L226.605 138.5H225.437ZM234.863 132.832C235.841 132.832 236.609 133.075 237.168 133.562C237.731 134.044 238.012 134.706 238.012 135.548C238.012 136.509 237.705 137.262 237.092 137.808C236.482 138.354 235.64 138.627 234.565 138.627C233.52 138.627 232.722 138.46 232.172 138.125V137.11C232.468 137.3 232.836 137.451 233.277 137.561C233.717 137.666 234.15 137.719 234.578 137.719C235.323 137.719 235.9 137.544 236.311 137.192C236.725 136.841 236.933 136.333 236.933 135.669C236.933 134.374 236.139 133.727 234.552 133.727C234.15 133.727 233.613 133.788 232.94 133.911L232.394 133.562L232.743 129.22H237.358V130.191H233.645L233.41 132.978C233.897 132.88 234.381 132.832 234.863 132.832ZM249.463 138.5L248.187 134.418C248.106 134.169 247.956 133.602 247.736 132.717H247.685C247.516 133.458 247.368 134.029 247.241 134.431L245.927 138.5H244.708L242.81 131.543H243.915C244.363 133.291 244.704 134.622 244.937 135.536C245.174 136.45 245.309 137.065 245.343 137.383H245.394C245.44 137.142 245.514 136.831 245.616 136.45C245.722 136.065 245.813 135.76 245.889 135.536L247.165 131.543H248.307L249.551 135.536C249.788 136.264 249.949 136.875 250.034 137.37H250.085C250.102 137.218 250.146 136.983 250.218 136.666C250.294 136.348 250.736 134.641 251.545 131.543H252.636L250.713 138.5H249.463ZM257.099 138.627C256.07 138.627 255.258 138.314 254.661 137.688C254.069 137.061 253.772 136.192 253.772 135.079C253.772 133.957 254.047 133.066 254.598 132.406C255.152 131.746 255.895 131.416 256.826 131.416C257.697 131.416 258.387 131.704 258.895 132.279C259.403 132.851 259.657 133.606 259.657 134.545V135.212H254.864C254.885 136.029 255.091 136.649 255.48 137.072C255.873 137.495 256.426 137.707 257.137 137.707C257.886 137.707 258.626 137.55 259.358 137.237V138.176C258.986 138.337 258.633 138.451 258.298 138.519C257.968 138.591 257.568 138.627 257.099 138.627ZM256.813 132.298C256.254 132.298 255.808 132.48 255.474 132.844C255.143 133.208 254.949 133.712 254.89 134.355H258.527C258.527 133.691 258.379 133.183 258.082 132.832C257.786 132.476 257.363 132.298 256.813 132.298ZM264.658 138.627C263.63 138.627 262.818 138.314 262.221 137.688C261.628 137.061 261.332 136.192 261.332 135.079C261.332 133.957 261.607 133.066 262.157 132.406C262.712 131.746 263.454 131.416 264.385 131.416C265.257 131.416 265.947 131.704 266.455 132.279C266.963 132.851 267.216 133.606 267.216 134.545V135.212H262.424C262.445 136.029 262.65 136.649 263.04 137.072C263.433 137.495 263.986 137.707 264.696 137.707C265.445 137.707 266.186 137.55 266.918 137.237V138.176C266.546 138.337 266.192 138.451 265.858 138.519C265.528 138.591 265.128 138.627 264.658 138.627ZM264.373 132.298C263.814 132.298 263.368 132.48 263.033 132.844C262.703 133.208 262.509 133.712 262.449 134.355H266.087C266.087 133.691 265.938 133.183 265.642 132.832C265.346 132.476 264.923 132.298 264.373 132.298ZM270.32 134.939C270.502 134.681 270.779 134.342 271.152 133.923L273.399 131.543H274.649L271.831 134.507L274.846 138.5H273.57L271.114 135.212L270.32 135.897V138.5H269.279V128.623H270.32V133.86C270.32 134.093 270.303 134.452 270.269 134.939H270.32ZM277.423 138.5H276.369V128.623H277.423V138.5ZM278.813 131.543H279.943L281.466 135.51C281.801 136.416 282.008 137.07 282.088 137.472H282.139C282.194 137.256 282.308 136.888 282.482 136.367C282.66 135.842 283.235 134.234 284.208 131.543H285.338L282.349 139.465C282.052 140.248 281.705 140.802 281.308 141.128C280.914 141.458 280.429 141.623 279.854 141.623C279.532 141.623 279.215 141.587 278.902 141.515V140.671C279.135 140.722 279.395 140.747 279.683 140.747C280.406 140.747 280.922 140.341 281.231 139.528L281.619 138.538L278.813 131.543Z" fill="#232323" fill-opacity="0.92"/>
<defs>
<filter id="filter0_d" x="0.958008" y="0" width="330" height="190" filterUnits="userSpaceOnUse" color-interpolation-filters="sRGB">
<feFlood flood-opacity="0" result="BackgroundImageFix"/>
<feColorMatrix in="SourceAlpha" type="matrix" values="0 0 0 0 0 0 0 0 0 0 0 0 0 0 0 0 0 0 127 0" result="hardAlpha"/>
<feOffset dx="-2" dy="4"/>
<feGaussianBlur stdDeviation="7.5"/>
<feColorMatrix type="matrix" values="0 0 0 0 0.748625 0 0 0 0 0.883333 0 0 0 0 0.883333 0 0 0 0.61 0"/>
<feBlend mode="normal" in2="BackgroundImageFix" result="effect1_dropShadow"/>
<feBlend mode="normal" in="SourceGraphic" in2="effect1_dropShadow" result="shape"/>
</filter>
</defs>
</svg>
