<svg width="29" height="28" viewBox="0 0 29 28" fill="none" xmlns="http://www.w3.org/2000/svg">
<path d="M14.4279 0.384279C6.6998 0.381154 0.44043 6.6374 0.44043 14.3593C0.44043 20.4655 4.35605 25.6562 9.80918 27.5624C10.5436 27.7468 10.4311 27.2249 10.4311 26.8687V24.4468C6.19043 24.9437 6.01855 22.1374 5.73418 21.6687C5.15918 20.6874 3.7998 20.4374 4.20605 19.9687C5.17168 19.4718 6.15605 20.0937 7.29668 21.778C8.12168 22.9999 9.73105 22.7937 10.5467 22.5905C10.7248 21.8562 11.1061 21.1999 11.6311 20.6905C7.2373 19.903 5.40605 17.2218 5.40605 14.0343C5.40605 12.4874 5.91543 11.0655 6.91543 9.91865C6.27793 8.02803 6.9748 6.40928 7.06855 6.16865C8.88418 6.00615 10.7717 7.46865 10.9186 7.58428C11.9498 7.30615 13.1279 7.15928 14.4467 7.15928C15.7717 7.15928 16.9529 7.3124 17.9936 7.59365C18.3467 7.3249 20.0967 6.06865 21.7842 6.22178C21.8748 6.4624 22.5561 8.04365 21.9561 9.90928C22.9686 11.0593 23.4842 12.4937 23.4842 14.0437C23.4842 17.2374 21.6404 19.9218 17.2342 20.6968C17.6116 21.0679 17.9113 21.5106 18.1157 21.9988C18.3201 22.4871 18.4252 23.0112 18.4248 23.5405V27.0562C18.4498 27.3374 18.4248 27.6155 18.8936 27.6155C24.4279 25.7499 28.4123 20.5218 28.4123 14.3624C28.4123 6.6374 22.1498 0.384279 14.4279 0.384279Z" fill="#03B2BA"/>
</svg>
