<svg width="38" height="28" viewBox="0 0 38 28" fill="none" xmlns="http://www.w3.org/2000/svg">
<path fill-rule="evenodd" clip-rule="evenodd" d="M10.355 5.5996C11.7517 3.5046 14.8767 0.55127 19.6667 0.55127C23.2167 0.55127 25.75 2.35127 27.345 4.4346C28.3784 5.78857 29.1088 7.34879 29.4867 9.0096C30.795 9.22127 32.3117 9.72627 33.6617 10.6996C35.6533 12.1313 37.1667 14.5063 37.1667 18.0513C37.1667 21.5946 35.6533 23.9696 33.6617 25.4046C31.755 26.7763 29.5167 27.2179 28 27.2179H20.5V16.2413L22.655 18.3963C22.9693 18.6999 23.3903 18.8679 23.8273 18.8641C24.2643 18.8603 24.6823 18.685 24.9914 18.376C25.3004 18.067 25.4757 17.6489 25.4795 17.2119C25.4833 16.7749 25.3153 16.3539 25.0117 16.0396L20.0117 11.0396C19.6991 10.7272 19.2753 10.5516 18.8333 10.5516C18.3914 10.5516 17.9675 10.7272 17.655 11.0396L12.655 16.0396C12.4958 16.1933 12.3688 16.3773 12.2815 16.5806C12.1941 16.7839 12.1482 17.0026 12.1462 17.2239C12.1443 17.4452 12.1865 17.6647 12.2703 17.8695C12.3541 18.0744 12.4779 18.2604 12.6343 18.4169C12.7908 18.5734 12.9769 18.6972 13.1817 18.781C13.3866 18.8648 13.606 18.9069 13.8273 18.905C14.0486 18.9031 14.2673 18.8571 14.4707 18.7698C14.674 18.6824 14.8579 18.5555 15.0117 18.3963L17.1667 16.2413V27.2179H11.3333C9.53833 27.2179 6.88333 26.6929 4.63 25.0713C2.29167 23.3863 0.5 20.5946 0.5 16.3846C0.5 12.1746 2.29167 9.38294 4.63 7.69794C6.50333 6.3496 8.65167 5.7596 10.355 5.59794V5.5996Z" fill="#20BDDC"/>
</svg>
