<svg xmlns="http://www.w3.org/2000/svg" width="42" height="42" viewBox="0 0 42 42"><defs><style>.a,.b{fill:none;}.a{stroke:#3489b6;stroke-linecap:round;stroke-miterlimit:10;stroke-width:2px;}.c{fill:#3489b6;}</style></defs><g transform="translate(-0.149 -0.158)"><ellipse class="a" cx="18" cy="20" rx="18" ry="20" transform="translate(3.149 1.158)"/><rect class="b" width="42" height="42" transform="translate(0.149 0.158)"/><path class="c" d="M25.631,31.194c-.116-1.364-.072-2.315-.072-3.561.582-.324,1.626-2.39,1.8-4.135.458-.04,1.18-.513,1.392-2.384a1.793,1.793,0,0,0-.615-1.747c.745-2.376,2.293-9.728-2.863-10.487-.531-.988-1.889-1.488-3.655-1.488-7.065.138-7.917,5.656-6.368,11.975a1.8,1.8,0,0,0-.615,1.747c.212,1.87.934,2.344,1.392,2.384.176,1.744,1.261,3.811,1.845,4.135,0,1.246.044,2.2-.073,3.561-1.006,2.868-6.173,3.092-9.154,5.857a18.943,18.943,0,0,0,13.5,5.707c5.33,0,11.6-4.462,12.638-5.679C31.819,34.288,26.64,34.072,25.631,31.194Z" transform="translate(-0.503 -1.687)"/></g></svg>