<svg width="17" height="18" viewBox="0 0 17 18" fill="none" xmlns="http://www.w3.org/2000/svg">
<path fill-rule="evenodd" clip-rule="evenodd" d="M8.5305 1.66796C8.33159 1.44401 7.98176 1.44401 7.78285 1.66796L1.34834 8.91213C1.0619 9.23462 1.29083 9.74418 1.72217 9.74418H4.15681C4.43295 9.74418 4.65681 9.96804 4.65681 10.2442V16.4942C4.65681 16.7704 4.88067 16.9942 5.15681 16.9942H11.1568C11.433 16.9942 11.6568 16.7704 11.6568 16.4942V10.2442C11.6568 9.96804 11.8807 9.74418 12.1568 9.74418H14.5912C15.0225 9.74418 15.2515 9.23462 14.965 8.91213L8.5305 1.66796L8.90433 1.33591L8.5305 1.66796ZM7.0352 1.00387C7.63193 0.332044 8.68142 0.332045 9.27816 1.00387L15.7127 8.24804C16.572 9.21552 15.8852 10.7442 14.5912 10.7442H12.6568V16.4942C12.6568 17.3227 11.9852 17.9942 11.1568 17.9942H5.15681C4.32838 17.9942 3.65681 17.3227 3.65681 16.4942V10.7442H1.72217C0.42816 10.7442 -0.25865 9.21552 0.600691 8.24804L7.0352 1.00387Z" fill="white"/>
</svg>
