<svg width="382" height="117" viewBox="0 0 382 117" fill="none" xmlns="http://www.w3.org/2000/svg">
<path d="M4.16774 0.443871C3.31405 0.444868 2.49562 0.784296 1.89197 1.38769C1.28833 1.99108 0.94875 2.80916 0.947754 3.66248V113.439C0.948752 114.292 1.28833 115.11 1.89197 115.714C2.49562 116.317 3.31406 116.657 4.16774 116.658H378.647C379.5 116.657 380.319 116.317 380.923 115.714C381.526 115.11 381.866 114.292 381.867 113.439V3.66246C381.866 2.80914 381.526 1.99107 380.923 1.38768C380.319 0.784285 379.5 0.444851 378.647 0.443848L4.16774 0.443871Z" fill="#E6E6E6"/>
<path d="M9.01709 108.592H373.798V8.50928H9.01709V108.592Z" fill="white"/>
<path d="M327.753 87.8291C326.339 87.8291 324.982 88.3908 323.982 89.3907C322.981 90.3905 322.419 91.7466 322.419 93.1606C322.419 94.5746 322.981 95.9307 323.982 96.9306C324.982 97.9304 326.339 98.4921 327.753 98.4921H349.088C350.503 98.4921 351.86 97.9304 352.86 96.9306C353.86 95.9307 354.422 94.5746 354.422 93.1606C354.422 91.7466 353.86 90.3905 352.86 89.3907C351.86 88.3908 350.503 87.8291 349.088 87.8291H327.753Z" fill="#6C63FF"/>
<path d="M354.422 77.4878H108.134V78.8905H354.422V77.4878Z" fill="#E6E6E6"/>
<path d="M56.652 89.6039C73.8095 89.6039 87.7185 75.701 87.7185 58.5508C87.7185 41.4005 73.8095 27.4976 56.652 27.4976C39.4944 27.4976 25.5854 41.4005 25.5854 58.5508C25.5854 75.701 39.4944 89.6039 56.652 89.6039Z" fill="#6C63FF"/>
<path d="M108.523 69.6541L107.745 68.4869L133.338 51.4324L150.888 59.8531L176.131 43.7324L176.472 43.8773L226.346 65.1436L266.335 45.5084L305.165 61.244L353.957 18.0464L354.887 19.0965L305.444 62.8706L266.389 47.0442L226.387 66.6861L176.262 45.3132L150.985 61.4557L133.451 53.0425L108.523 69.6541Z" fill="#3F3D56"/>
<path d="M112.695 88.5625C111.487 88.5641 110.328 89.0451 109.474 89.8999C108.62 90.7547 108.14 91.9134 108.14 93.1215C108.14 94.3295 108.62 95.4882 109.474 96.343C110.328 97.1978 111.487 97.6788 112.695 97.6804H160.409C161.619 97.6804 162.779 97.2001 163.634 96.3451C164.49 95.4901 164.97 94.3306 164.97 93.1215C164.97 91.9123 164.49 90.7528 163.634 89.8978C162.779 89.0428 161.619 88.5625 160.409 88.5625H112.695Z" fill="#E6E6E6"/>
<path d="M69.152 54.9262C69.7327 51.0402 66.7726 48.9512 62.7253 47.5576L64.0382 42.2936L60.8316 41.4951L59.5534 46.6204C58.7116 46.4105 57.8461 46.2124 56.986 46.0162L58.2734 40.8571L55.0696 40.0586L53.7557 45.3208C53.0582 45.162 52.3734 45.005 51.7088 44.8398L51.7124 44.8234L47.2916 43.7201L46.4388 47.1424C46.4388 47.1424 48.8172 47.6872 48.767 47.721C49.2106 47.7741 49.6156 47.9991 49.895 48.3476C50.1743 48.6961 50.3056 49.1403 50.2607 49.5846L48.7652 55.5814C48.8785 55.6097 48.9898 55.6453 49.0984 55.6882L48.7606 55.6043L46.6634 64.005C46.6173 64.1516 46.5427 64.2877 46.4438 64.4054C46.3449 64.5231 46.2237 64.6201 46.0872 64.6909C45.9507 64.7616 45.8015 64.8046 45.6483 64.8176C45.4951 64.8305 45.3408 64.813 45.1944 64.7661C45.2263 64.8127 42.8643 64.1848 42.8643 64.1848L41.2729 67.8535L45.4454 68.893C46.2215 69.0874 46.9821 69.2909 47.7298 69.4826L46.4032 74.8078L49.6052 75.6063L50.9199 70.3386C51.7937 70.5759 52.6428 70.7949 53.4736 71.0012L52.1644 76.2442L55.37 77.0428L56.6966 71.7285C62.1628 72.7626 66.2742 72.3455 68.0025 67.4045C69.3967 63.4255 67.934 61.1302 65.058 59.6326C67.1524 59.148 68.7302 57.7708 69.1511 54.9262L69.152 54.9262ZM61.8268 65.1923C60.8353 69.1714 54.1337 67.0212 51.9598 66.481L53.7201 59.4273C55.8931 59.9694 62.8604 61.0426 61.8277 65.1923H61.8268ZM62.8174 54.8687C61.9135 58.4882 56.335 56.6492 54.5245 56.1984L56.1204 49.8009C57.931 50.2517 63.7597 51.0932 62.8174 54.8687Z" fill="white"/>
</svg>
