<?xml version="1.0" ?><svg id="solid" viewBox="0 0 512 512" xmlns="http://www.w3.org/2000/svg"><title/><path d="M488,88V424a16,16,0,0,1-16,16H448a8,8,0,0,1-8-8V401.13a8,8,0,0,1,2.413-5.714A72.023,72.023,0,0,0,446,296.364q-1.717-1.945-3.565-3.74A8.01,8.01,0,0,1,440,286.891V184a64,64,0,0,1-64-64H136a64,64,0,0,1-64,64V328a64,64,0,0,1,64,64H334.9a8.036,8.036,0,0,1,5.738,2.434q.47.48.949.951A8.035,8.035,0,0,1,344,401.107V432a8,8,0,0,1-8,8H40a16,16,0,0,1-16-16V88A16,16,0,0,1,40,72H472A16,16,0,0,1,488,88ZM168,200H344a8,8,0,0,0,0-16H168a8,8,0,0,0,0,16Zm0,64H344a8,8,0,0,0,0-16H168a8,8,0,0,0,0,16Zm154.857,48H168.274a8.183,8.183,0,0,0-8.257,7.468A8,8,0,0,0,168,328H319.462a2.979,2.979,0,0,0,2.891-2.2,71.532,71.532,0,0,1,3.277-9.662A2.991,2.991,0,0,0,322.857,312ZM434,306.955A56,56,0,1,0,354.956,386c.721.635,1.374,1.183,1.993,1.671A56,56,0,0,0,434,306.955ZM392,416a72.182,72.182,0,0,1-27.866-5.618A2.992,2.992,0,0,0,360,413.155v67.586a8,8,0,0,0,12.115,6.86l15.769-9.461a8,8,0,0,1,8.232,0l15.769,9.461A8,8,0,0,0,424,480.741V413.157a2.992,2.992,0,0,0-4.133-2.773A72.218,72.218,0,0,1,392,416Z" style="fill:#3b3b3b"/></svg>