<svg width="26" height="16" viewBox="0 0 26 16" fill="none" xmlns="http://www.w3.org/2000/svg">
<path d="M17.2529 1.19692H23.4873V2.70942H17.2529V1.19692ZM11.0061 7.1813C12.3842 6.52192 13.1061 5.5188 13.1061 3.9688C13.1061 0.903174 10.8248 0.159424 8.19043 0.159424H0.94043V15.5469H8.39355C11.1873 15.5469 13.8092 14.2032 13.8092 11.0782C13.8092 9.14692 12.8967 7.7188 11.0061 7.1813ZM4.32168 2.78442H7.49356C8.71543 2.78442 9.8123 3.12505 9.8123 4.5438C9.8123 5.85005 8.95918 6.37505 7.7498 6.37505H4.32168V2.78442ZM7.93106 12.9344H4.31855V8.69692H8.00293C9.49043 8.69692 10.4311 9.3188 10.4311 10.8938C10.4311 12.4438 9.30918 12.9344 7.93106 12.9344ZM25.9248 10.1376C25.9248 6.84068 23.9967 4.0938 20.5092 4.0938C17.1186 4.0938 14.8123 6.64692 14.8123 9.9938C14.8123 13.4626 16.9967 15.8438 20.5092 15.8438C23.1686 15.8438 24.8904 14.6469 25.7186 12.0938H23.0217C22.7279 13.0469 21.5342 13.5469 20.6061 13.5469C18.8123 13.5469 17.8748 12.4969 17.8748 10.7125H25.9029C25.9123 10.5282 25.9248 10.3344 25.9248 10.1376ZM17.8748 8.7813C17.9717 7.31567 18.9498 6.40005 20.4123 6.40005C21.9498 6.40005 22.7186 7.30317 22.8529 8.7813H17.8748Z" fill="#03B2BA"/>
</svg>
