<svg width="27" height="22" viewBox="0 0 27 22" fill="none" xmlns="http://www.w3.org/2000/svg">
<path d="M26.4406 2.94689C25.4844 3.35939 24.4437 3.65626 23.3719 3.77189C24.4847 3.11075 25.3181 2.06626 25.7156 0.834388C24.6714 1.4556 23.5274 1.89121 22.3344 2.12189C21.8358 1.58885 21.2327 1.1642 20.5628 0.874411C19.8929 0.584623 19.1705 0.435901 18.4406 0.437513C15.4875 0.437513 13.1125 2.83126 13.1125 5.76876C13.1125 6.18126 13.1625 6.59376 13.2438 6.99064C8.82188 6.75939 4.87813 4.64689 2.25625 1.41251C1.77852 2.2285 1.52817 3.15759 1.53125 4.10314C1.53125 5.95314 2.47187 7.58439 3.90625 8.54376C3.06095 8.51047 2.23545 8.27813 1.49688 7.86564V7.93126C1.49688 10.5219 3.32813 12.6688 5.76875 13.1625C5.3105 13.2815 4.83908 13.3424 4.36563 13.3438C4.01875 13.3438 3.69062 13.3094 3.35937 13.2625C4.03437 15.375 6 16.9094 8.34062 16.9594C6.50937 18.3938 4.21563 19.2375 1.725 19.2375C1.27813 19.2375 0.865625 19.2219 0.4375 19.1719C2.8 20.6875 5.60312 21.5625 8.62187 21.5625C18.4219 21.5625 23.7844 13.4438 23.7844 6.39689C23.7844 6.16564 23.7844 5.93439 23.7687 5.70314C24.8062 4.94376 25.7156 4.00314 26.4406 2.94689Z" fill="#03B2BA"/>
</svg>
