<svg width="56" height="58" viewBox="0 0 56 58" fill="none" xmlns="http://www.w3.org/2000/svg">
<g filter="url(#filter0_ddd)">
<circle cx="28" cy="26.625" r="22.5" fill="white"/>
</g>
<path d="M35.1719 38.125H20.2012V34.9756L25.5771 29.541C27.1689 27.9102 28.209 26.7822 28.6973 26.1572C29.1855 25.5225 29.5371 24.9365 29.752 24.3994C29.9668 23.8623 30.0742 23.3057 30.0742 22.7295C30.0742 21.8701 29.835 21.2305 29.3564 20.8105C28.8877 20.3906 28.2578 20.1807 27.4668 20.1807C26.6367 20.1807 25.8311 20.3711 25.0498 20.752C24.2686 21.1328 23.4531 21.6748 22.6035 22.3779L20.1426 19.4629C21.1973 18.5645 22.0713 17.9297 22.7646 17.5586C23.458 17.1875 24.2148 16.9043 25.0352 16.709C25.8555 16.5039 26.7734 16.4014 27.7891 16.4014C29.127 16.4014 30.3086 16.6455 31.334 17.1338C32.3594 17.6221 33.1553 18.3057 33.7217 19.1846C34.2881 20.0635 34.5713 21.0693 34.5713 22.2021C34.5713 23.1885 34.3955 24.1162 34.0439 24.9854C33.7021 25.8447 33.165 26.7285 32.4326 27.6367C31.71 28.5449 30.4307 29.8389 28.5947 31.5186L25.8408 34.1113V34.3164H35.1719V38.125Z" fill="black"/>
<defs>
<filter id="filter0_ddd" x="0.5" y="0.125" width="55" height="57" filterUnits="userSpaceOnUse" color-interpolation-filters="sRGB">
<feFlood flood-opacity="0" result="BackgroundImageFix"/>
<feColorMatrix in="SourceAlpha" type="matrix" values="0 0 0 0 0 0 0 0 0 0 0 0 0 0 0 0 0 0 127 0" result="hardAlpha"/>
<feOffset dy="1"/>
<feGaussianBlur stdDeviation="2.5"/>
<feComposite in2="hardAlpha" operator="out"/>
<feColorMatrix type="matrix" values="0 0 0 0 0 0 0 0 0 0 0 0 0 0 0 0 0 0 0.12 0"/>
<feBlend mode="normal" in2="BackgroundImageFix" result="effect1_dropShadow"/>
<feColorMatrix in="SourceAlpha" type="matrix" values="0 0 0 0 0 0 0 0 0 0 0 0 0 0 0 0 0 0 127 0" result="hardAlpha"/>
<feOffset dy="4"/>
<feGaussianBlur stdDeviation="2"/>
<feComposite in2="hardAlpha" operator="out"/>
<feColorMatrix type="matrix" values="0 0 0 0 0 0 0 0 0 0 0 0 0 0 0 0 0 0 0.25 0"/>
<feBlend mode="normal" in2="effect1_dropShadow" result="effect2_dropShadow"/>
<feColorMatrix in="SourceAlpha" type="matrix" values="0 0 0 0 0 0 0 0 0 0 0 0 0 0 0 0 0 0 127 0" result="hardAlpha"/>
<feOffset dy="4"/>
<feGaussianBlur stdDeviation="2"/>
<feComposite in2="hardAlpha" operator="out"/>
<feColorMatrix type="matrix" values="0 0 0 0 0 0 0 0 0 0 0 0 0 0 0 0 0 0 0.25 0"/>
<feBlend mode="normal" in2="effect2_dropShadow" result="effect3_dropShadow"/>
<feBlend mode="normal" in="SourceGraphic" in2="effect3_dropShadow" result="shape"/>
</filter>
</defs>
</svg>
